<svg width="37" height="44" viewBox="0 0 37 44" fill="none" xmlns="http://www.w3.org/2000/svg">
<path d="M0.806554 23.9189C0.432921 17.2875 5.04961 10.5188 11.8385 10.5188C13.4018 10.5188 14.1107 10.891 15.8135 11.4335C16.7251 11.724 18.27 12.5311 19.1632 12.5311C20.0565 12.5311 21.1284 11.9366 22.5744 11.3936C24.6256 10.6232 25.8388 10.5409 27.024 10.5188C30.999 10.5188 33.9174 12.2205 35.778 14.8636C32.7068 16.9101 31.0884 19.3913 30.999 23.4159C30.999 27.0746 33.2769 30.6418 36.9393 32.2425C36.046 36.0842 31.2224 43.9962 27.2473 43.9962C25.8824 43.9163 25.0435 43.6981 23.4509 43.0815C22.2642 42.5489 20.6818 42.1668 19.6545 42.1668C18.5826 42.1211 17.3812 42.4768 15.8805 43.0815C14.6076 43.5944 13.8492 43.8855 12.1064 43.9962C8.80132 44.2062 1.46879 35.6726 0.806554 23.9189Z" fill="white"/>
<path d="M21.3071 3.38432C19.4634 5.4174 18.7612 8.09494 18.8952 10.5188C21.9324 10.2902 24.0315 9.00962 25.9521 6.63144C27.8726 4.25327 27.8867 2.52516 27.8726 0C25.6372 0.372464 23.0489 1.46349 21.3071 3.38432Z" fill="white"/>
</svg>
