<svg width="34" height="25" viewBox="0 0 34 25" fill="none" xmlns="http://www.w3.org/2000/svg">
<path d="M33 7.57143V20.7143C33 21.5857 32.6629 22.4214 32.0627 23.0376C31.4626 23.6538 30.6487 24 29.8 24H4.2C3.35131 24 2.53737 23.6538 1.93726 23.0376C1.33714 22.4214 1 21.5857 1 20.7143V4.28571C1 3.41429 1.33714 2.57855 1.93726 1.96236C2.53737 1.34617 3.35131 1 4.2 1H29.8C30.6487 1 31.4626 1.34617 32.0627 1.96236C32.6629 2.57855 33 3.41429 33 4.28571V7.57143ZM33 7.57143H7.4M24.2 14.7704C24.5453 14.4533 24.9727 14.2455 25.4304 14.1723C25.8882 14.099 26.3569 14.1633 26.7798 14.3576C27.2028 14.5518 27.5619 14.8675 27.8139 15.2667C28.066 15.6659 28.2001 16.1314 28.2001 16.6071C28.2001 17.0829 28.066 17.5484 27.8139 17.9476C27.5619 18.3468 27.2028 18.6625 26.7798 18.8567C26.3569 19.0509 25.8882 19.1153 25.4304 19.042C24.9727 18.9688 24.5453 18.761 24.2 18.4439C23.8547 18.761 23.4273 18.9688 22.9696 19.042C22.5118 19.1153 22.0431 19.0509 21.6202 18.8567C21.1972 18.6625 20.8381 18.3468 20.5861 17.9476C20.334 17.5484 20.1999 17.0829 20.1999 16.6071C20.1999 16.1314 20.334 15.6659 20.5861 15.2667C20.8381 14.8675 21.1972 14.5518 21.6202 14.3576C22.0431 14.1633 22.5118 14.099 22.9696 14.1723C23.4273 14.2455 23.8547 14.4533 24.2 14.7704Z" stroke="url(#paint0_linear_17_966)" stroke-width="1.5" stroke-linecap="round" stroke-linejoin="round"/>
<defs>
<linearGradient id="paint0_linear_17_966" x1="17" y1="1" x2="17" y2="24" gradientUnits="userSpaceOnUse">
<stop stop-color="#980063"/>
<stop offset="1" stop-color="#991F6F"/>
</linearGradient>
</defs>
</svg>
