<svg width="47" height="44" viewBox="0 0 47 44" fill="none" xmlns="http://www.w3.org/2000/svg">
<path d="M22.3737 0.0690977C15.2264 0.91773 9.2258 5.02124 6.18654 11.1335C4.36076 14.8074 3.78185 18.5671 4.39416 22.6707C4.48322 23.2615 4.53889 23.7556 4.51662 23.7878C4.48322 23.8093 3.72619 23.3152 2.8133 22.6921C1.57756 21.8328 1.08771 21.5535 0.820527 21.5535C0.130292 21.5535 -0.259356 22.4236 0.197089 22.9285C0.297284 23.0466 1.55529 23.949 2.98029 24.9265C5.61877 26.7312 5.93049 26.8816 6.35353 26.5701C6.65412 26.3552 10.2278 21.4675 10.3057 21.1775C10.4393 20.6404 9.81584 20.0818 9.2258 20.2107C8.96975 20.2644 8.66916 20.5974 7.66721 21.9402C6.9881 22.864 6.4092 23.5945 6.38693 23.573C6.36467 23.5515 6.26447 23.0466 6.16428 22.4666C5.87482 20.8767 5.90822 18.2234 6.21994 16.5584C6.94357 12.7664 8.85842 9.29663 11.6862 6.68628C18.1209 0.756596 27.8844 0.0368712 35.2432 4.95679C36.5569 5.83765 38.7389 7.91089 39.6406 9.14624C43.1697 13.9802 44.1049 19.9099 42.1901 25.3777C41.767 26.5701 41.7559 26.946 42.1455 27.2361C42.8803 27.7947 43.3701 27.4187 43.8934 25.8826C46.3426 18.7605 44.4166 10.9724 38.917 5.70874C35.9223 2.84058 32.1928 0.982184 28.0514 0.273199C26.5819 0.026129 23.6651 -0.0812929 22.3737 0.0690977Z" fill="url(#paint0_linear_107_15)"/>
<path d="M22.741 5.26831C20.4588 5.68726 18.4772 6.72925 16.9074 8.31909C14.8367 10.4031 13.7903 13.0779 13.9461 15.9138C14.102 18.6208 15.0817 20.7478 17.0856 22.6814C18.5885 24.1208 19.9801 24.905 22.0397 25.4421C23.3533 25.7859 25.7803 25.7859 27.1274 25.4421C29.1313 24.9373 30.6899 24.0886 32.126 22.6921C33.551 21.3171 34.4639 19.781 34.976 17.8796C35.3322 16.5691 35.3322 14.2273 34.976 12.9597C34.4082 10.9402 33.6289 9.64038 32.1149 8.17944C30.5897 6.71851 29.0088 5.84839 27.0383 5.38647C26.0252 5.15015 23.7319 5.08569 22.741 5.26831ZM26.7154 7.09448C29.0311 7.69604 30.8123 8.92065 32.0592 10.7791C34.7311 14.7107 33.5399 20.0388 29.4207 22.6277C27.9067 23.5837 26.5373 23.9705 24.6002 23.9705C22.0842 23.9705 20.058 23.1648 18.3213 21.489C16.5846 19.8132 15.7496 17.8582 15.7496 15.4304C15.7496 13.5613 16.1504 12.24 17.1412 10.7791C18.4772 8.79175 20.559 7.44897 22.986 6.98706C23.9322 6.81519 25.8471 6.85815 26.7154 7.09448Z" fill="url(#paint1_linear_107_15)"/>
<path d="M23.9879 8.71655C23.743 8.94214 23.7096 9.07104 23.7096 9.71558C23.7096 10.446 23.6985 10.4675 23.409 10.5427C21.9951 10.8757 20.9932 12.4656 21.3606 13.7869C21.6278 14.7751 22.3069 15.3445 23.9656 15.9783C25.3573 16.5046 25.9028 16.8162 26.0475 17.1599C26.3592 17.8689 25.8137 18.5457 24.7895 18.7605C24.0992 18.8894 23.409 18.782 22.6854 18.4275C21.9172 18.0515 21.2604 18.3845 21.2604 19.1472C21.2604 19.3943 21.3494 19.5662 21.5944 19.7595C21.9729 20.071 23.0194 20.4792 23.4313 20.4792C23.6985 20.4792 23.7096 20.5115 23.7096 21.1775C23.7096 21.7898 23.743 21.9187 23.9879 22.1443C24.3442 22.4988 24.8563 22.4988 25.2125 22.1443C25.4574 21.9187 25.4908 21.7898 25.4908 21.1453V20.4148L26.1031 20.1677C27.8844 19.448 28.5301 17.1492 27.3055 15.8494C26.7934 15.3015 26.3035 15.033 24.7672 14.4207C23.576 13.948 23.0416 13.572 23.0416 13.2175C23.0416 12.8845 23.409 12.4011 23.7653 12.2507C24.3664 12.0144 25.3461 12.0574 26.0252 12.3689C26.7711 12.7019 26.9938 12.7019 27.3278 12.3689C27.6172 12.1003 27.684 11.6921 27.4948 11.3376C27.3612 11.1121 26.6598 10.7361 25.9918 10.5427L25.5465 10.4138L25.4908 9.64038C25.4463 8.98511 25.3906 8.82397 25.168 8.6521C24.8117 8.3728 24.3108 8.39429 23.9879 8.71655Z" fill="url(#paint2_linear_107_15)"/>
<path d="M14.7699 26.9246C12.2428 27.1501 10.4504 27.5906 7.11057 28.8582C4.50549 29.8464 1.91155 30.7166 1.19905 30.8455C0.976392 30.8884 0.675806 31.0388 0.531079 31.1892C0.286157 31.447 0.275024 31.5222 0.275024 33.1873C0.275024 34.6589 0.319556 35.0671 0.531079 35.8406C1.32151 38.6765 3.0137 41.4373 4.76155 42.7693C5.59651 43.4138 6.69866 43.9402 7.03264 43.865C7.17737 43.822 7.77854 43.4568 8.37971 43.0486C8.99202 42.6296 9.65999 42.2429 9.88264 42.1785C10.8067 41.9314 12.2873 42.1033 15.026 42.7693C18.6219 43.6394 20.9153 43.9294 24.0992 43.9402C26.9938 43.9402 27.2832 43.8865 29.8438 42.7908C33.6067 41.1687 42.5908 36.7322 44.283 35.658C45.8194 34.6804 46.5096 33.6169 46.3871 32.4138C46.2535 30.8884 44.9733 29.6423 43.2588 29.3845C41.8338 29.1589 40.008 29.6209 36.0002 31.2322C34.6977 31.7585 33.6067 32.1882 33.5955 32.1882C33.5733 32.1882 33.5621 31.866 33.5621 31.4578C33.551 30.2439 32.7272 28.8796 31.6918 28.364C30.6231 27.8269 29.3205 27.7732 26.849 28.1599C24.1104 28.5896 23.0305 28.5144 20.8151 27.698C18.8112 26.9568 17.0188 26.7312 14.7699 26.9246ZM18.7555 28.8474C19.1897 28.9656 19.9912 29.2234 20.5367 29.4382C22.5963 30.2009 24.1549 30.3084 26.9381 29.8787C29.7547 29.4382 30.7901 29.5564 31.3801 30.3513C32.3821 31.7156 31.6807 32.9617 29.3651 33.9392C28.7082 34.2185 27.8621 34.5408 27.4836 34.6589C26.4817 34.9919 24.9676 35.0349 23.242 34.7878C21.4051 34.53 21.0377 34.6482 21.0377 35.4753C21.0377 36.1628 21.3272 36.3025 23.3199 36.5496C24.9565 36.7537 26.593 36.7107 27.6395 36.4314C27.9957 36.3347 30.3225 35.4216 32.8162 34.4011C39.9858 31.447 41.0768 31.0818 42.524 31.071C43.3479 31.071 43.7932 31.2537 44.2385 31.7585C45.1959 32.865 44.528 33.6707 41.2883 35.3572C36.1672 38.0105 28.9865 41.3943 27.2387 41.9744C25.3461 42.6082 19.9022 42.2322 15.7608 41.2009C13.5342 40.6423 12.5768 40.4705 11.3522 40.3953C9.67112 40.2878 8.98088 40.5027 7.47795 41.5662C7.03264 41.8777 6.80999 41.9636 6.6096 41.9207C6.16428 41.8132 4.80608 40.4705 4.11584 39.4714C2.83557 37.5916 2.1342 35.6365 2.03401 33.6277L1.96721 32.446L3.73733 31.8875C4.71702 31.5759 6.49827 30.9421 7.71174 30.4695C10.7287 29.2878 12.599 28.8152 15.026 28.6003C16.0614 28.5144 17.9762 28.6326 18.7555 28.8474Z" fill="url(#paint3_linear_107_15)"/>
<defs>
<linearGradient id="paint0_linear_107_15" x1="22.47" y1="27.4808" x2="22.47" y2="2.86102e-05" gradientUnits="userSpaceOnUse">
<stop stop-color="#CD3498"/>
<stop offset="1" stop-color="#991F6F"/>
</linearGradient>
<linearGradient id="paint1_linear_107_15" x1="24.587" y1="25.7" x2="24.587" y2="5.16292" gradientUnits="userSpaceOnUse">
<stop stop-color="#CD3498"/>
<stop offset="1" stop-color="#991F6F"/>
</linearGradient>
<linearGradient id="paint2_linear_107_15" x1="24.5979" y1="22.4102" x2="24.5979" y2="8.45759" gradientUnits="userSpaceOnUse">
<stop stop-color="#CD3498"/>
<stop offset="1" stop-color="#991F6F"/>
</linearGradient>
<linearGradient id="paint3_linear_107_15" x1="23.338" y1="43.9402" x2="23.338" y2="26.8588" gradientUnits="userSpaceOnUse">
<stop stop-color="#CD3498"/>
<stop offset="1" stop-color="#991F6F"/>
</linearGradient>
</defs>
</svg>
