<svg width="41" height="38" viewBox="0 0 41 38" fill="none" xmlns="http://www.w3.org/2000/svg">
<path d="M16.1994 2.91104C-0.29241 7.17386 0.000344136 6.81862 0.000344136 22.4489C0.000344136 33.55 0.195514 35.2374 1.75687 36.4807C3.31823 37.8128 6.14818 37.9905 20.6883 37.9905C42.2545 37.9905 40.9859 38.8785 40.9859 23.5147C40.9859 7.97313 41.9618 8.6836 20.7859 8.6836C11.0274 8.6836 4.97717 8.32837 5.85543 7.88433C7.41679 6.99624 28.5927 1.57891 30.2516 1.57891C30.7395 1.57891 31.2275 2.73342 31.2275 4.24317C31.2275 5.66411 31.7154 6.90743 32.2033 6.90743C33.5695 6.90743 33.3743 2.11176 32.0081 0.868442C30.4468 -0.552497 29.4709 -0.463688 16.1994 2.91104ZM37.8632 11.5255C39.5222 13.0352 39.5222 33.6388 37.8632 35.1486C36.2043 36.6583 4.782 36.6583 3.12306 35.1486C1.46412 33.6388 1.46412 13.0352 3.12306 11.5255C4.782 10.0157 36.2043 10.0157 37.8632 11.5255Z" fill="url(#paint0_linear_107_29)"/>
<path d="M31.6178 22.449C31.2275 23.2482 31.4226 24.3139 32.0082 24.8468C33.4719 26.1789 36.3019 24.9356 35.9115 23.1594C35.5212 21.1168 32.3985 20.584 31.6178 22.449Z" fill="url(#paint1_linear_107_29)"/>
<defs>
<linearGradient id="paint0_linear_107_29" x1="20.5" y1="38" x2="20.5" y2="-4.19617e-05" gradientUnits="userSpaceOnUse">
<stop stop-color="#CD3498"/>
<stop offset="1" stop-color="#991F6F"/>
</linearGradient>
<linearGradient id="paint1_linear_107_29" x1="33.6814" y1="25.4058" x2="33.6814" y2="21.3022" gradientUnits="userSpaceOnUse">
<stop stop-color="#CD3498"/>
<stop offset="1" stop-color="#991F6F"/>
</linearGradient>
</defs>
</svg>
