<svg width="32" height="28" viewBox="0 0 32 28" fill="none" xmlns="http://www.w3.org/2000/svg">
<path d="M31 9.46746C31.0051 11.6901 30.1159 13.8283 28.5189 15.4331C24.8574 19.0891 21.3054 22.901 17.5088 26.4226C16.6373 27.2171 15.2558 27.1882 14.4233 26.3576L3.48065 15.4346C0.173115 12.1325 0.173115 6.80242 3.48065 3.50182C4.26238 2.71169 5.20258 2.08266 6.24427 1.65286C7.28596 1.22306 8.40744 1.00144 9.54072 1.00144C10.674 1.00144 11.7955 1.22306 12.8372 1.65286C13.8789 2.08266 14.8191 2.71169 15.6008 3.50182L15.9998 3.8976L16.3973 3.50182C17.1806 2.71356 18.1211 2.08568 19.1624 1.65579C20.2037 1.2259 21.3244 1.00285 22.4574 1C24.7374 1 26.9169 1.90135 28.5174 3.50182C30.115 5.10639 31.0047 7.24459 31 9.46746Z" stroke="url(#paint0_linear_22_42)" stroke-width="1.5" stroke-linejoin="round"/>
<defs>
<linearGradient id="paint0_linear_22_42" x1="16" y1="1" x2="16" y2="27" gradientUnits="userSpaceOnUse">
<stop stop-color="#CD3498"/>
<stop offset="1" stop-color="#991F6F"/>
</linearGradient>
</defs>
</svg>
