<svg width="30" height="30" viewBox="0 0 30 30" fill="none" xmlns="http://www.w3.org/2000/svg">
<path d="M13.8787 0.0293827C9.98812 0.398523 6.82406 1.89266 4.21077 4.59384C3.06234 5.77743 2.21273 7.00204 1.48031 8.51376C0.554524 10.4239 0.0916332 12.3223 0.00960197 14.4903C-0.0782887 16.9864 0.437336 19.3653 1.55062 21.6036C2.32991 23.1798 3.13851 24.2931 4.40999 25.5704C5.70491 26.8595 6.82406 27.6622 8.40023 28.4356C9.50179 28.9747 10.2108 29.2384 11.3299 29.5196C14.2596 30.2579 17.201 30.1173 20.0604 29.1036C20.9393 28.7931 22.451 28.0313 23.2244 27.5157C24.994 26.3321 26.5819 24.7032 27.7303 22.8985C28.1522 22.2364 28.8319 20.8302 29.1073 20.0509C30.4842 16.172 30.244 12.0118 28.4334 8.37313C27.7069 6.90829 26.8924 5.75399 25.7498 4.57626C24.4959 3.27548 23.2303 2.35555 21.5838 1.5411C19.8494 0.685633 18.2323 0.222742 16.3104 0.0469608C15.7127 -0.00577354 14.3592 -0.0174923 13.8787 0.0293827ZM17.0721 2.03329C20.7869 2.66024 23.9334 4.71102 25.9959 7.86337C26.992 9.37508 27.6717 11.1622 27.9823 13.0841C28.1229 13.9806 28.1229 15.9962 27.9823 16.8927C27.3494 20.8067 25.2049 24.0528 21.8768 26.1505C20.453 27.047 18.7303 27.6798 16.8963 27.9786C15.994 28.1192 13.9842 28.1192 13.0877 27.9727C10.1756 27.4981 7.77327 26.2852 5.72835 24.2462C3.70687 22.2306 2.4764 19.7989 2.00179 16.8927C1.86116 15.9962 1.86116 13.9864 2.00179 13.0841C2.4764 10.172 3.70687 7.74032 5.72835 5.73055C7.96663 3.49813 10.7791 2.18563 13.9373 1.89852C14.5701 1.83993 16.3866 1.92196 17.0721 2.03329Z" fill="url(#paint0_linear_23_101)"/>
<path d="M14.7518 5.49032C14.2186 5.66024 14.0545 5.97079 14.0545 6.83211V7.46493L13.744 7.52938C12.3729 7.81649 11.1248 8.75399 10.5682 9.92C10.2401 10.5997 10.1639 10.9513 10.1697 11.7071C10.1815 12.9317 10.6678 13.9044 11.6346 14.6251C12.4256 15.2169 13.3631 15.5802 14.8572 15.8673C16.3983 16.1602 17.16 16.4591 17.7283 16.9923C18.1619 17.4083 18.3494 17.8067 18.3787 18.4102C18.4022 18.8145 18.3846 18.9376 18.2733 19.1895C18.0154 19.7931 17.283 20.3028 16.3104 20.5606C15.6248 20.7423 14.4881 20.7481 13.8612 20.5665C13.2401 20.3907 12.7889 20.1505 12.3963 19.7931C11.992 19.4239 11.7576 19.0606 11.5877 18.545C11.4295 18.0645 11.1483 17.7774 10.7791 17.713C10.4627 17.6602 10.0408 17.8595 9.84748 18.1524C9.73029 18.3282 9.71271 18.4102 9.73615 18.7091C9.81818 19.7345 10.8026 21.1114 11.9276 21.7794C12.3846 22.0489 13.1522 22.3477 13.6737 22.4532L14.0252 22.5235L14.0545 23.1915C14.0779 23.7247 14.1072 23.9063 14.201 24.0587C14.576 24.6856 15.4901 24.6446 15.8065 23.9884C15.9061 23.7891 15.9295 23.6251 15.9295 23.1446V22.5528L16.1522 22.5118C17.7108 22.2481 19.0115 21.5157 19.6619 20.5372C20.0779 19.9161 20.2127 19.4942 20.2479 18.7032C20.2713 18.17 20.2596 17.9708 20.16 17.5723C19.8377 16.3067 19.0877 15.4278 17.7752 14.7891C17.1131 14.461 16.4627 14.2677 15.3553 14.0509C13.9197 13.7755 13.3455 13.5704 12.7362 13.1134C11.8104 12.422 11.7987 10.9513 12.7069 10.1016C13.2225 9.62118 13.9725 9.32821 14.8162 9.26961C16.1463 9.17586 17.4061 9.84969 17.9744 10.9454C18.2967 11.5723 18.5369 11.7657 18.9764 11.7657C19.3279 11.7657 19.6033 11.6134 19.7674 11.3263C19.9549 11.0098 19.9549 10.711 19.7674 10.3067C19.369 9.46297 18.5955 8.60164 17.8104 8.13289C17.3592 7.86336 16.3572 7.48836 16.0936 7.48836H15.9295V6.86141C15.9295 6.35164 15.9061 6.19344 15.8065 5.98836C15.619 5.59579 15.1385 5.37313 14.7518 5.49032Z" fill="url(#paint1_linear_23_101)"/>
<defs>
<linearGradient id="paint0_linear_23_101" x1="14.9951" y1="29.9852" x2="14.9951" y2="1.71661e-05" gradientUnits="userSpaceOnUse">
<stop stop-color="#CD3498"/>
<stop offset="1" stop-color="#991F6F"/>
</linearGradient>
<linearGradient id="paint1_linear_23_101" x1="14.9927" y1="24.5056" x2="14.9927" y2="5.45908" gradientUnits="userSpaceOnUse">
<stop stop-color="#CD3498"/>
<stop offset="1" stop-color="#991F6F"/>
</linearGradient>
</defs>
</svg>
