<svg width="30" height="29" viewBox="0 0 30 29" fill="none" xmlns="http://www.w3.org/2000/svg">
<path fill-rule="evenodd" clip-rule="evenodd" d="M14.1385 0.0119197C14.0518 0.0188125 13.9808 0.0367337 13.9808 0.0518978C13.9808 0.0669893 13.9276 0.0793963 13.8625 0.0793963C13.7974 0.0793963 13.7358 0.0924563 13.7256 0.108418C13.7154 0.124381 13.6673 0.137441 13.6187 0.137441C13.5701 0.137441 13.5304 0.148106 13.5304 0.161239C13.5304 0.174299 13.4629 0.202741 13.3803 0.224507C13.2977 0.246274 13.2302 0.274716 13.2302 0.287776C13.2302 0.300908 13.2031 0.311574 13.1701 0.311574C13.1371 0.311574 13.1101 0.324634 13.1101 0.340596C13.1101 0.356558 13.0771 0.369618 13.0368 0.369618C12.9965 0.369618 12.9551 0.382678 12.9449 0.39864C12.9347 0.414603 12.9031 0.427662 12.8747 0.427662C12.8463 0.427662 12.8036 0.453782 12.7798 0.485707C12.756 0.517631 12.7124 0.543751 12.6831 0.543751C12.6536 0.543751 12.6296 0.556811 12.6296 0.572773C12.6296 0.588736 12.6056 0.601795 12.5762 0.601795C12.5468 0.601795 12.5033 0.627916 12.4795 0.65984C12.4557 0.691764 12.4155 0.71832 12.3903 0.718827C12.3397 0.719843 12.1846 0.836512 11.9672 1.03713C11.8894 1.10896 11.7766 1.20444 11.7166 1.24928C11.6565 1.29412 11.6155 1.34346 11.6253 1.35884C11.6351 1.37422 11.6253 1.38322 11.6035 1.37886C11.5815 1.37444 11.5674 1.38815 11.5719 1.40934C11.5764 1.43045 11.5681 1.44054 11.5534 1.43176C11.5171 1.41014 11.4226 1.51447 11.451 1.5448C11.4635 1.558 11.4585 1.56054 11.44 1.55039C11.3995 1.52797 11.2989 1.62773 11.3309 1.65864C11.3434 1.67061 11.3332 1.67612 11.3085 1.67076C11.2837 1.66546 11.2668 1.67743 11.2709 1.69738C11.2751 1.71734 11.2627 1.7304 11.2434 1.72641C11.2241 1.72241 11.1905 1.7518 11.1688 1.79171C11.147 1.83161 11.129 1.85418 11.1287 1.84191C11.1285 1.82958 11.0525 1.89053 10.9598 1.9773C10.8645 2.06647 10.8003 2.14904 10.8119 2.16725C10.8232 2.18496 10.8214 2.19758 10.8078 2.19533C10.7446 2.18467 10.7079 2.20172 10.7079 2.24155C10.7079 2.26549 10.69 2.28508 10.6681 2.28508C10.6194 2.28508 10.4912 2.41234 10.5125 2.43963C10.5209 2.45036 10.5185 2.45247 10.5073 2.44427C10.476 2.42141 10.3171 2.58017 10.3383 2.61325C10.3485 2.62921 10.3431 2.63407 10.3262 2.62399C10.292 2.60353 10.1888 2.69959 10.2124 2.72999C10.2207 2.74073 10.2183 2.74269 10.2071 2.73449C10.1747 2.71091 10.0174 2.87089 10.0382 2.90623C10.0485 2.92379 10.0457 2.92814 10.0319 2.91602C10.0013 2.88918 9.86718 3.0057 9.86718 3.05925C9.86718 3.08036 9.85299 3.0977 9.83573 3.0977C9.79835 3.0977 9.36987 3.5038 9.40657 3.50445C9.42046 3.50467 9.39802 3.52208 9.35673 3.54312C9.31544 3.56409 9.28504 3.59659 9.28917 3.61524C9.2933 3.63389 9.27979 3.64586 9.25914 3.64187C9.2385 3.63788 9.22529 3.65188 9.22987 3.67307C9.23437 3.69418 9.22604 3.70427 9.21133 3.69549C9.17507 3.67387 9.08049 3.7782 9.10894 3.80853C9.1214 3.82173 9.11644 3.82427 9.09798 3.81412C9.05744 3.7917 8.95685 3.89146 8.98883 3.92237C9.00129 3.93434 8.99116 3.93985 8.96638 3.93449C8.94146 3.92919 8.92502 3.94196 8.9296 3.96329C8.93411 3.9844 8.92577 3.99449 8.91106 3.98571C8.87953 3.96685 8.77917 4.06574 8.80116 4.09403C8.8095 4.10477 8.80709 4.1068 8.79598 4.09868C8.76776 4.07815 8.63609 4.20207 8.63609 4.24916C8.63609 4.27027 8.62491 4.28435 8.61125 4.28036C8.57882 4.27085 8.16835 4.66759 8.17819 4.69893C8.18232 4.71213 8.16775 4.72295 8.14591 4.72295C8.09051 4.72295 7.96995 4.85253 7.99773 4.88213C8.01026 4.89548 8.00546 4.89809 7.98699 4.88794C7.94646 4.86552 7.84587 4.96528 7.87785 4.99619C7.89031 5.00816 7.88017 5.01368 7.8554 5.00831C7.83048 5.00301 7.81404 5.01578 7.81862 5.03711C7.82312 5.05822 7.81479 5.06831 7.80008 5.05953C7.76382 5.03791 7.66924 5.14224 7.69769 5.17257C7.71015 5.18578 7.70519 5.18832 7.68673 5.17816C7.64619 5.15574 7.5456 5.2555 7.57758 5.28641C7.59004 5.29838 7.57991 5.3039 7.55514 5.29853C7.53036 5.29323 7.51347 5.3052 7.5176 5.32516C7.52173 5.34511 7.50935 5.35817 7.49005 5.35418C7.47076 5.35019 7.43713 5.37957 7.41544 5.41948C7.39367 5.45938 7.37565 5.48108 7.37543 5.46765C7.37475 5.43217 6.95461 5.84632 6.95461 5.88245C6.95461 5.89914 6.93666 5.91285 6.91482 5.91285C6.85942 5.91285 6.73886 6.04244 6.76664 6.07204C6.77917 6.08539 6.77467 6.08815 6.7565 6.07814C6.71507 6.05535 6.55525 6.21294 6.58633 6.24603C6.59894 6.25945 6.59421 6.26214 6.57574 6.25198C6.53911 6.23174 6.43469 6.32642 6.45909 6.35777C6.46742 6.3685 6.46495 6.37046 6.45376 6.36226C6.42133 6.33868 6.26407 6.49867 6.28486 6.534C6.29522 6.55156 6.29237 6.55591 6.27856 6.5438C6.24793 6.51695 6.11386 6.63348 6.11386 6.68702C6.11386 6.70814 6.09502 6.72548 6.07205 6.72548C6.03271 6.72548 5.99375 6.78439 5.99375 6.84396C5.99375 6.8592 6.2378 6.87059 6.56426 6.87059C6.92458 6.87059 7.13476 6.88125 7.13476 6.89961C7.13476 6.91557 7.20825 6.92863 7.29811 6.92863C7.38796 6.92863 7.46986 6.94169 7.48007 6.95765C7.49028 6.97362 7.54433 6.98668 7.60018 6.98668C7.65603 6.98668 7.71007 6.99974 7.72028 7.0157C7.73049 7.03166 7.78537 7.04472 7.84219 7.04472C7.89902 7.04472 7.94548 7.05459 7.94548 7.0667C7.94548 7.09108 8.15784 7.16081 8.23201 7.16081C8.25806 7.16081 8.27097 7.17387 8.26076 7.18983C8.25055 7.20579 8.26999 7.21885 8.304 7.21885C8.338 7.21885 8.36585 7.23191 8.36585 7.24788C8.36585 7.26384 8.39205 7.2769 8.42411 7.2769C8.45616 7.2769 8.49076 7.28996 8.50097 7.30592C8.51118 7.32188 8.53956 7.33494 8.56403 7.33494C8.58858 7.33494 8.63759 7.36106 8.67303 7.39299C8.70846 7.42491 8.75522 7.45103 8.77684 7.45103C8.79854 7.45103 8.81625 7.46409 8.81625 7.48005C8.81625 7.49601 8.84328 7.50907 8.87631 7.50907C8.90934 7.50907 8.93636 7.51996 8.93636 7.53316C8.93636 7.54644 8.97352 7.57575 9.01893 7.59832C9.06435 7.62081 9.12177 7.66021 9.14654 7.68567C9.17132 7.71121 9.22454 7.74902 9.26477 7.76962C9.3818 7.82963 9.36942 7.81845 9.80788 8.25814C9.97107 8.42175 10.091 8.52013 10.112 8.50758C10.1335 8.49474 10.1385 8.4996 10.1253 8.52035C10.1051 8.55199 10.1979 8.64849 10.6211 9.03586C10.7101 9.11734 10.9008 9.30446 11.0447 9.45175C11.2088 9.61964 11.3197 9.7115 11.3421 9.69807C11.3645 9.68472 11.3699 9.68915 11.3565 9.71012C11.3369 9.74074 11.4988 9.90834 11.8823 10.2545C11.9548 10.3199 12.1319 10.494 12.2758 10.6414C12.4197 10.7887 12.5513 10.901 12.5682 10.891C12.5871 10.8797 12.5912 10.892 12.579 10.9227C12.5636 10.9616 12.5708 10.9684 12.6109 10.9536C12.6428 10.9418 12.6554 10.9458 12.6438 10.964C12.6334 10.9803 12.7496 11.1075 12.902 11.2467C13.0545 11.3858 13.2347 11.5569 13.3023 11.627C13.6604 11.9976 13.8338 12.1541 13.8655 12.1352C13.8868 12.1225 13.8918 12.1274 13.8787 12.1481C13.8539 12.1868 14.1876 12.5157 14.2806 12.5443C14.3139 12.5545 14.3411 12.575 14.3411 12.5899C14.3411 12.6048 14.367 12.617 14.3987 12.617C14.4303 12.617 14.4618 12.6332 14.4686 12.6529C14.4774 12.6784 14.572 12.6887 14.7939 12.6887C15.1608 12.6886 15.2603 12.6507 15.4891 12.424C15.5672 12.3466 15.8172 12.1033 16.0445 11.8833C16.2719 11.6633 16.5526 11.3912 16.6682 11.2786C16.7838 11.1659 17.0723 10.8869 17.3093 10.6585C17.847 10.1402 17.9942 9.99794 18.5304 9.4783C18.7667 9.24917 19.0553 8.97034 19.1717 8.85861C19.7715 8.28281 20.1204 7.92946 20.1126 7.90574C20.1077 7.89115 20.1246 7.88694 20.1501 7.89638C20.191 7.91161 20.4028 7.76759 20.4315 7.70497C20.4371 7.693 20.4607 7.68321 20.4841 7.68321C20.5075 7.68321 20.5266 7.6732 20.5266 7.66101C20.5266 7.64882 20.5807 7.60659 20.6467 7.56712C20.7128 7.52765 20.7668 7.48542 20.7668 7.47323C20.7668 7.46104 20.7939 7.45103 20.8269 7.45103C20.8599 7.45103 20.8869 7.43797 20.8869 7.42201C20.8869 7.40605 20.914 7.39299 20.947 7.39299C20.98 7.39299 21.0071 7.38319 21.0073 7.37122C21.0076 7.34517 21.153 7.2769 21.2082 7.2769C21.2297 7.2769 21.2473 7.26384 21.2473 7.24788C21.2473 7.23191 21.2743 7.21885 21.3073 7.21885C21.3403 7.21885 21.3674 7.20579 21.3674 7.18983C21.3674 7.17387 21.3936 7.16081 21.4256 7.16081C21.4577 7.16081 21.4923 7.14775 21.5025 7.13179C21.5127 7.11582 21.5541 7.10276 21.5944 7.10276C21.6347 7.10276 21.6676 7.0897 21.6676 7.07374C21.6676 7.05778 21.7006 7.04472 21.7409 7.04472C21.7812 7.04472 21.8226 7.03166 21.8328 7.0157C21.843 6.99974 21.8979 6.98668 21.9547 6.98668C22.0115 6.98668 22.058 6.97362 22.058 6.95765C22.058 6.94169 22.1323 6.92863 22.2231 6.92863C22.3139 6.92863 22.3883 6.91557 22.3883 6.89961C22.3883 6.88103 22.6641 6.87059 23.1557 6.87059C23.6271 6.87059 23.9165 6.86007 23.9057 6.84331C23.8961 6.82829 23.9064 6.79963 23.9286 6.77953C23.975 6.73767 23.8836 6.60939 23.8073 6.60939C23.7846 6.60939 23.7732 6.59807 23.782 6.58421C23.8036 6.55047 23.6956 6.45825 23.6669 6.48597C23.6546 6.49801 23.6489 6.48822 23.6544 6.46428C23.6599 6.44019 23.6467 6.4243 23.6246 6.42872C23.6028 6.43308 23.5923 6.42502 23.6014 6.4108C23.6238 6.37576 23.5158 6.28434 23.4845 6.31184C23.4708 6.32388 23.4682 6.31909 23.4787 6.30124C23.5007 6.26395 23.3994 6.16411 23.3692 6.19335C23.3581 6.20402 23.3491 6.19023 23.3491 6.16266C23.3491 6.13509 23.3356 6.12065 23.3191 6.13052C23.3026 6.14039 23.2891 6.134 23.2891 6.1163C23.2891 6.09134 18.8367 1.7732 18.2407 1.22004C18.1686 1.15307 18.0622 1.05193 18.0044 0.995336C17.9466 0.938671 17.891 0.892235 17.8808 0.892163C17.8707 0.89209 17.8166 0.853055 17.7607 0.805386C17.7048 0.75779 17.6384 0.71861 17.6131 0.71832C17.5879 0.718102 17.5478 0.691764 17.524 0.65984C17.5002 0.627916 17.4566 0.601795 17.4273 0.601795C17.3978 0.601795 17.3738 0.588736 17.3738 0.572773C17.3738 0.556811 17.353 0.543751 17.3275 0.543751C17.3021 0.543751 17.2522 0.517631 17.2168 0.485707C17.1814 0.453782 17.1287 0.427662 17.0997 0.427662C17.0708 0.427662 17.0387 0.414603 17.0285 0.39864C17.0183 0.382678 16.9837 0.369618 16.9517 0.369618C16.9196 0.369618 16.8934 0.359751 16.8934 0.347706C16.8934 0.33559 16.8495 0.308672 16.7958 0.287703C16.7421 0.266807 16.6747 0.237495 16.6461 0.222621C16.6174 0.207674 16.5667 0.195485 16.5335 0.195485C16.5002 0.195485 16.473 0.182425 16.473 0.166463C16.473 0.150501 16.4333 0.137441 16.3847 0.137441C16.3362 0.137441 16.2881 0.124381 16.2779 0.108418C16.2676 0.0924563 16.2071 0.0793963 16.1435 0.0793963C16.0798 0.0793963 16.0223 0.0638695 16.0157 0.0449325C16.0038 0.0101784 14.4965 -0.0163769 14.1385 0.0119197ZM15.4371 1.90779C15.4258 1.92557 15.4724 1.93682 15.5572 1.93682C15.642 1.93682 15.6887 1.94806 15.6773 1.96584C15.6665 1.98274 15.6971 1.99486 15.7506 1.99486C15.8011 1.99486 15.8425 2.00792 15.8425 2.02388C15.8425 2.03984 15.8687 2.0529 15.9007 2.0529C15.9328 2.0529 15.9674 2.06596 15.9776 2.08193C15.9878 2.09789 16.0299 2.11095 16.0712 2.11095C16.1136 2.11095 16.1382 2.12357 16.1277 2.13997C16.1175 2.15593 16.137 2.16899 16.171 2.16899C16.205 2.16899 16.2328 2.18205 16.2328 2.19802C16.2328 2.21398 16.2531 2.22704 16.2779 2.22704C16.3026 2.22704 16.3229 2.2401 16.3229 2.25606C16.3229 2.27202 16.345 2.28508 16.3719 2.28508C16.3989 2.28508 16.4437 2.3104 16.4714 2.34131C16.4992 2.37222 16.5399 2.40161 16.562 2.40661C16.6015 2.41554 19.968 5.65238 19.9503 5.66435C19.9452 5.66769 19.8901 5.69316 19.8276 5.72087C19.7652 5.74859 19.6986 5.79532 19.6796 5.82463C19.6606 5.85401 19.6281 5.87172 19.6073 5.86403C19.5865 5.85626 19.5518 5.87716 19.5303 5.91046C19.5089 5.94369 19.4705 5.9709 19.4451 5.9709C19.4197 5.9709 19.3794 5.99702 19.3556 6.02894C19.3318 6.06087 19.294 6.08699 19.2715 6.08699C19.2491 6.08699 19.1793 6.13872 19.1165 6.20199C19.0536 6.26518 18.9844 6.32069 18.9627 6.32533C18.9409 6.3299 18.0006 7.22458 16.873 8.3135L14.8228 10.2932L12.9189 8.45135C11.8718 7.43826 11.0005 6.60939 10.9827 6.60939C10.9648 6.60939 10.9358 6.58327 10.9181 6.55134C10.9005 6.51942 10.872 6.4933 10.8551 6.4933C10.838 6.4933 10.7583 6.428 10.6779 6.34819C10.5975 6.26838 10.5203 6.20308 10.5063 6.20308C10.4924 6.20308 10.4615 6.17696 10.4377 6.14503C10.4139 6.11311 10.3771 6.08699 10.356 6.08699C10.3348 6.08699 10.3176 6.07393 10.3176 6.05797C10.3176 6.042 10.3035 6.02894 10.2863 6.02894C10.2691 6.02894 10.226 6.00282 10.1906 5.9709C10.1551 5.93897 10.1084 5.91285 10.0868 5.91285C10.0651 5.91285 10.0473 5.90067 10.0473 5.88579C10.0473 5.87092 10.0203 5.85046 9.98729 5.8403C9.95426 5.83014 9.92723 5.81048 9.92723 5.79655C9.92723 5.75759 13.4111 2.40117 13.4515 2.40117C13.4711 2.40117 13.5066 2.37505 13.5304 2.34313C13.5542 2.3112 13.5978 2.28508 13.6271 2.28508C13.6565 2.28508 13.6806 2.27202 13.6806 2.25606C13.6806 2.2401 13.7017 2.22704 13.7274 2.22704C13.7531 2.22704 13.7658 2.21398 13.7556 2.19802C13.7454 2.18205 13.7583 2.16899 13.7843 2.16899C13.8301 2.16899 13.8615 2.15709 14.003 2.08643C14.0399 2.068 14.0906 2.0529 14.1156 2.0529C14.1406 2.0529 14.161 2.03984 14.161 2.02388C14.161 2.00792 14.2007 1.99486 14.2493 1.99486C14.2978 1.99486 14.3459 1.9818 14.3562 1.96584C14.3664 1.94988 14.428 1.93682 14.4931 1.93682C14.5582 1.93682 14.6114 1.92376 14.6114 1.90779C14.6114 1.8898 14.7721 1.87877 15.0336 1.87877C15.3073 1.87877 15.4491 1.889 15.4371 1.90779ZM4.56892 8.15141C4.47861 8.23412 4.41173 8.31284 4.42029 8.32627C4.42892 8.33969 4.41721 8.35072 4.39431 8.35072C4.33764 8.35072 4.21611 8.47972 4.24441 8.5099C4.25694 8.52325 4.25214 8.52587 4.23367 8.51571C4.19314 8.49329 4.09255 8.59305 4.12453 8.62396C4.13699 8.63593 4.12685 8.64145 4.10208 8.63608C4.07716 8.63078 4.06072 8.64355 4.0653 8.66488C4.0698 8.686 4.06147 8.69608 4.04676 8.6873C4.0105 8.66568 3.91592 8.77002 3.94437 8.80034C3.95683 8.81355 3.95187 8.81609 3.93341 8.80593C3.91501 8.7957 3.87703 8.81188 3.84903 8.84177C3.80917 8.88429 3.80669 8.89974 3.83755 8.91281C3.85917 8.92195 3.84986 8.92659 3.81683 8.92304C3.7823 8.91941 3.75993 8.93203 3.76428 8.95293C3.76841 8.97288 3.75602 8.98594 3.73673 8.98195C3.71744 8.97796 3.68381 9.00735 3.66212 9.04725C3.64035 9.08716 3.62233 9.10754 3.62211 9.09245C3.62188 9.07743 3.52152 9.16218 3.39908 9.28073C3.27665 9.39936 3.18289 9.50631 3.1907 9.5185C3.19843 9.53069 3.188 9.54063 3.16743 9.54063C3.11533 9.54063 2.99372 9.65585 3.00333 9.69611C3.00769 9.71432 3.00528 9.71839 2.99785 9.70511C2.9905 9.69191 2.94591 9.71672 2.89877 9.7604C2.85162 9.804 2.82152 9.85407 2.83181 9.87155C2.84217 9.88911 2.83939 9.89361 2.82573 9.88157C2.79232 9.85233 2.68715 9.94672 2.71117 9.9843C2.72161 10.0006 2.71658 10.0059 2.70006 9.99599C2.68355 9.98612 2.63303 10.0153 2.58792 10.0609C2.54273 10.1064 2.51705 10.1495 2.53071 10.1566C2.54445 10.1638 2.54025 10.1661 2.52141 10.1619C2.47974 10.1526 2.36054 10.2702 2.36054 10.3205C2.36054 10.3404 2.35026 10.3505 2.33764 10.343C2.32503 10.3355 2.21438 10.4261 2.09165 10.5444C1.96899 10.6628 1.88131 10.7598 1.89685 10.76C1.91247 10.7602 1.89137 10.7776 1.85009 10.7987C1.8088 10.8196 1.7784 10.8521 1.78253 10.8708C1.78666 10.8894 1.77314 10.9014 1.7525 10.8974C1.73186 10.8934 1.71865 10.9074 1.72323 10.9286C1.72773 10.9497 1.7194 10.9598 1.70468 10.951C1.66843 10.9294 1.57384 11.0337 1.60229 11.0641C1.61475 11.0773 1.6098 11.0798 1.59133 11.0697C1.5508 11.0472 1.45021 11.147 1.48219 11.1779C1.49465 11.1899 1.48451 11.1954 1.45974 11.19C1.43482 11.1847 1.41838 11.1975 1.42296 11.2188C1.42746 11.2399 1.41816 11.2495 1.40224 11.2399C1.38633 11.2304 1.33528 11.2701 1.28889 11.3282C1.2425 11.3862 1.14371 11.4952 1.0694 11.5704C0.861838 11.7806 0.741131 11.9305 0.74008 11.9794C0.739554 12.0037 0.71208 12.0426 0.679051 12.0656C0.646022 12.0886 0.618998 12.1306 0.618998 12.159C0.618998 12.1875 0.605486 12.2107 0.588971 12.2107C0.572457 12.2107 0.558945 12.2339 0.558945 12.2623C0.558945 12.2907 0.531921 12.3328 0.498892 12.3558C0.465862 12.3788 0.438838 12.4201 0.438838 12.4476C0.438838 12.475 0.425326 12.5055 0.408812 12.5154C0.392297 12.5253 0.378785 12.5652 0.378785 12.6042C0.378785 12.6432 0.365273 12.675 0.348759 12.675C0.332244 12.675 0.318732 12.7011 0.318732 12.7331C0.318732 12.765 0.307697 12.7911 0.29411 12.7911C0.280598 12.7911 0.251172 12.8564 0.228652 12.9362C0.206132 13.016 0.176706 13.0813 0.163194 13.0813C0.149607 13.0813 0.138573 13.1197 0.138573 13.1667C0.138573 13.2136 0.125061 13.2601 0.108546 13.27C0.0920314 13.2798 0.0785195 13.3383 0.0785195 13.3999C0.0785195 13.4636 0.0623802 13.517 0.0409863 13.5239C-0.0136621 13.5416 -0.0136621 15.4653 0.0409863 15.4829C0.0623802 15.4898 0.0785195 15.5432 0.0785195 15.607C0.0785195 15.6685 0.0920314 15.727 0.108546 15.7369C0.125061 15.7467 0.138573 15.7932 0.138573 15.8402C0.138573 15.8871 0.152085 15.9255 0.168599 15.9255C0.185114 15.9255 0.198626 15.9518 0.198626 15.9839C0.198626 16.0161 0.211237 16.065 0.226701 16.0927C0.242089 16.1205 0.272416 16.1856 0.294035 16.2375C0.315729 16.2894 0.343579 16.3318 0.356115 16.3318C0.368576 16.3318 0.378785 16.3571 0.378785 16.3881C0.378785 16.4191 0.392297 16.4526 0.408812 16.4624C0.425326 16.4723 0.438838 16.5033 0.438838 16.5312C0.438838 16.5592 0.465862 16.6101 0.498892 16.6444C0.531921 16.6786 0.558945 16.7268 0.558945 16.7514C0.558945 16.776 0.572457 16.7962 0.588971 16.7962C0.605486 16.7962 0.618998 16.8194 0.618998 16.8478C0.618998 16.8762 0.646022 16.9183 0.679051 16.9413C0.71208 16.9643 0.739329 17.0031 0.739554 17.0275C0.739855 17.0519 0.780391 17.1161 0.829634 17.1701C0.878953 17.2242 0.919339 17.2764 0.919414 17.2862C0.919564 17.3057 1.07773 17.4644 1.17659 17.5441C1.21075 17.5717 1.24745 17.6171 1.25819 17.6451C1.26892 17.673 1.30068 17.6959 1.32868 17.6959C1.35675 17.6959 1.37206 17.7032 1.36283 17.7121C1.33536 17.7387 4.69713 20.973 4.77047 20.9905C4.95273 21.0341 7.22484 20.9645 7.22484 20.9154C7.22484 20.9005 7.27889 20.8883 7.34495 20.8883C7.41101 20.8883 7.46506 20.8752 7.46506 20.8593C7.46506 20.8433 7.50559 20.8303 7.55514 20.8303C7.60468 20.8303 7.64522 20.8172 7.64522 20.8012C7.64522 20.7853 7.67817 20.7722 7.71848 20.7722C7.75879 20.7722 7.80015 20.7592 7.81036 20.7432C7.82057 20.7272 7.85518 20.7142 7.88723 20.7142C7.91928 20.7142 7.94548 20.7011 7.94548 20.6851C7.94548 20.6692 7.97251 20.6561 8.00554 20.6561C8.03856 20.6561 8.06559 20.6431 8.06559 20.6271C8.06559 20.6111 8.08586 20.5981 8.11063 20.5981C8.1354 20.5981 8.15567 20.585 8.15567 20.5691C8.15567 20.5531 8.17969 20.54 8.20912 20.54C8.23847 20.54 8.282 20.5139 8.3058 20.482C8.3296 20.4501 8.3663 20.4239 8.3874 20.4239C8.40849 20.4239 8.4756 20.3785 8.53655 20.3229C8.59743 20.2674 8.65328 20.2278 8.66056 20.2348C8.66785 20.2418 9.76749 19.1902 11.1043 17.8979C12.441 16.6056 13.551 15.5482 13.571 15.5482C13.5909 15.5482 13.6267 15.5221 13.6505 15.4902C13.6743 15.4583 13.7179 15.4321 13.7472 15.4321C13.7766 15.4321 13.8007 15.4191 13.8007 15.4031C13.8007 15.3871 13.8277 15.3741 13.8607 15.3741C13.8937 15.3741 13.9208 15.361 13.9208 15.3451C13.9208 15.3291 13.9478 15.316 13.9808 15.316C14.0139 15.316 14.0409 15.303 14.0409 15.287C14.0409 15.2711 14.0814 15.258 14.131 15.258C14.1805 15.258 14.221 15.2449 14.221 15.229C14.221 15.213 14.2683 15.2 14.3261 15.2C14.3839 15.2 14.4312 15.1869 14.4312 15.1709C14.4312 15.1532 14.5708 15.1419 14.7897 15.1419C14.9964 15.1419 15.1562 15.1542 15.1669 15.1709C15.1771 15.1869 15.2311 15.2 15.287 15.2C15.3428 15.2 15.3969 15.213 15.4071 15.229C15.4173 15.2449 15.4578 15.258 15.4972 15.258C15.5365 15.258 15.577 15.2711 15.5872 15.287C15.5975 15.303 15.6388 15.316 15.6791 15.316C15.7194 15.316 15.7524 15.3291 15.7524 15.3451C15.7524 15.361 15.7727 15.3741 15.7974 15.3741C15.8222 15.3741 15.8425 15.3871 15.8425 15.4031C15.8425 15.4191 15.8627 15.4321 15.8875 15.4321C15.9123 15.4321 15.9325 15.4452 15.9325 15.4612C15.9325 15.4771 15.9498 15.4902 15.971 15.4902C15.9921 15.4902 16.0289 15.5163 16.0527 15.5482C16.0765 15.5801 16.1132 15.6063 16.1343 15.6063C16.1555 15.6063 16.1728 15.6193 16.1728 15.6353C16.1728 15.6512 16.1864 15.6643 16.2031 15.6643C16.2275 15.6643 16.579 15.9854 16.9903 16.3833C17.0233 16.4153 17.3003 16.683 17.6058 16.9783C17.9113 17.2736 18.1883 17.5413 18.2213 17.5732C18.2544 17.6052 18.5447 17.8861 18.8666 18.1975C19.5673 18.8756 19.3961 18.7101 20.0977 19.3874C20.8317 20.0961 20.7847 20.0505 20.9576 20.2217C21.0377 20.301 21.1172 20.3659 21.1342 20.3659C21.1512 20.3659 21.187 20.3888 21.2137 20.4169C21.2404 20.4449 21.2994 20.4863 21.3448 20.5088C21.3903 20.5314 21.4274 20.5607 21.4274 20.574C21.4274 20.5872 21.4544 20.5981 21.4875 20.5981C21.5205 20.5981 21.5475 20.6111 21.5475 20.6271C21.5475 20.6431 21.5745 20.6561 21.6076 20.6561C21.6406 20.6561 21.6676 20.6692 21.6676 20.6851C21.6676 20.7011 21.6947 20.7142 21.7277 20.7142C21.7607 20.7142 21.7877 20.7272 21.7877 20.7432C21.7877 20.7592 21.8283 20.7722 21.8778 20.7722C21.9274 20.7722 21.9679 20.7853 21.9679 20.8012C21.9679 20.8172 22.0008 20.8303 22.0412 20.8303C22.0815 20.8303 22.1228 20.8433 22.133 20.8593C22.1432 20.8752 22.1905 20.8883 22.2381 20.8883C22.2857 20.8883 22.333 20.9014 22.3432 20.9173C22.3534 20.9333 22.4496 20.9463 22.5569 20.9463C22.6794 20.9463 22.7452 20.9572 22.7336 20.9754C22.7213 20.9945 23.1506 21.0038 24.0004 21.0026L25.2858 21.0009L25.451 20.8276C25.5418 20.7323 25.7671 20.5057 25.9516 20.324C26.1361 20.1424 26.2791 19.9861 26.2693 19.9766C26.2597 19.9673 26.274 19.9596 26.3013 19.9596C26.3287 19.9596 26.4762 19.8355 26.6291 19.6838C26.7821 19.5322 27.0593 19.2612 27.2451 19.0816C27.4309 18.9021 27.7078 18.6344 27.8606 18.4866C28.0134 18.339 28.3024 18.0565 28.5029 17.8589C28.7034 17.6613 28.8795 17.4948 28.8943 17.4889C28.9091 17.4831 28.9681 17.4199 29.0253 17.3486C29.0825 17.2774 29.1532 17.1929 29.1825 17.161C29.2118 17.1291 29.2291 17.0862 29.221 17.0656C29.2129 17.0451 29.2202 17.0284 29.2374 17.0284C29.2869 17.0284 29.3497 16.9551 29.3712 16.8722C29.3821 16.8304 29.403 16.7962 29.4177 16.7962C29.4325 16.7962 29.4445 16.7701 29.4445 16.7381C29.4445 16.7062 29.4546 16.68 29.467 16.6799C29.494 16.6796 29.5646 16.539 29.5646 16.4856C29.5646 16.4649 29.5781 16.4479 29.5946 16.4479C29.6112 16.4479 29.6247 16.4218 29.6247 16.3899C29.6247 16.3579 29.6348 16.3317 29.6472 16.3316C29.6777 16.3313 29.7448 16.1877 29.7448 16.1229C29.7448 16.0941 29.7583 16.0706 29.7748 16.0706C29.7913 16.0706 29.8048 16.0314 29.8048 15.9836C29.8048 15.9357 29.8183 15.8965 29.8349 15.8965C29.8514 15.8965 29.8649 15.8573 29.8649 15.8094C29.8649 15.7615 29.8784 15.7224 29.8949 15.7224C29.9114 15.7224 29.9249 15.6712 29.9249 15.6087C29.9249 15.5436 29.9409 15.4899 29.9625 15.4829C29.9915 15.4736 30 15.2515 30 14.5034C30 13.7553 29.9915 13.5333 29.9625 13.5239C29.9409 13.517 29.9249 13.4633 29.9249 13.3982C29.9249 13.3356 29.9114 13.2845 29.8949 13.2845C29.8784 13.2845 29.8649 13.2461 29.8649 13.1992C29.8649 13.1522 29.8514 13.1057 29.8349 13.0958C29.8183 13.086 29.8048 13.046 29.8048 13.007C29.8048 12.9681 29.7913 12.9362 29.7748 12.9362C29.7583 12.9362 29.7448 12.9036 29.7448 12.8637C29.7448 12.8238 29.7313 12.7911 29.7147 12.7911C29.6982 12.7911 29.6847 12.765 29.6847 12.7331C29.6847 12.7011 29.6712 12.675 29.6547 12.675C29.6382 12.675 29.6247 12.6489 29.6247 12.617C29.6247 12.5851 29.6112 12.5589 29.5946 12.5589C29.5781 12.5589 29.5646 12.5288 29.5646 12.4918C29.5646 12.455 29.5376 12.3967 29.5046 12.3625C29.4715 12.3282 29.4445 12.28 29.4445 12.2554C29.4445 12.2308 29.431 12.2107 29.4145 12.2107C29.398 12.2107 29.3845 12.1909 29.3845 12.1668C29.3845 12.1205 29.1825 11.8257 29.1394 11.8092C29.1256 11.8039 29.1142 11.7857 29.1142 11.7689C29.1142 11.752 29.0365 11.6643 28.9416 11.5738C28.8466 11.4835 28.7533 11.3841 28.7342 11.353C28.7151 11.3219 28.6813 11.3008 28.6591 11.3061C28.6369 11.3115 28.6291 11.3058 28.6417 11.2936C28.6726 11.2637 28.5126 11.1051 28.4744 11.1279C28.4579 11.1377 28.4529 11.1325 28.4633 11.1162C28.4857 11.0812 28.3829 10.9827 28.3536 11.011C28.3425 11.0217 28.3335 11.011 28.3335 10.9873C28.3335 10.9269 28.1916 10.8108 28.1727 10.8557C28.1646 10.8746 28.157 10.8636 28.1558 10.8311C28.1534 10.7713 27.6082 10.2372 27.5497 10.2372C27.5329 10.2372 27.5247 10.2274 27.5312 10.2154C27.5378 10.2034 27.1205 9.78681 26.6037 9.28966C26.0869 8.79244 25.6578 8.40064 25.65 8.41899C25.6422 8.43728 25.6348 8.42574 25.6335 8.39331C25.6322 8.36095 25.5531 8.25973 25.4576 8.16839L25.2841 8.00245H23.9881C23.1565 8.00245 22.6855 8.01283 22.6735 8.03147C22.6633 8.04744 22.5956 8.0605 22.523 8.0605C22.4505 8.0605 22.36 8.07218 22.3221 8.08647C22.2841 8.10076 22.1923 8.12921 22.118 8.14959C22.0437 8.16998 21.9701 8.19748 21.9544 8.21069C21.9387 8.22382 21.8948 8.23463 21.8568 8.23463C21.8188 8.23463 21.7877 8.24769 21.7877 8.26365C21.7877 8.27961 21.7607 8.29267 21.7277 8.29267C21.6947 8.29267 21.6676 8.30573 21.6676 8.3217C21.6676 8.33766 21.6406 8.35072 21.6076 8.35072C21.5745 8.35072 21.5475 8.36378 21.5475 8.37974C21.5475 8.3957 21.5205 8.40876 21.4875 8.40876C21.4544 8.40876 21.4274 8.42182 21.4274 8.43779C21.4274 8.45375 21.4105 8.46681 21.3899 8.46688C21.3692 8.46688 21.3051 8.50606 21.2473 8.55387C21.1895 8.60169 21.1317 8.64087 21.1188 8.64087C21.1061 8.64094 21.0347 8.69971 20.9604 8.77154C20.8861 8.84337 20.8332 8.90214 20.8428 8.90214C20.8601 8.90214 20.6637 9.08701 20.3185 9.39552C20.2203 9.48331 20.139 9.57364 20.1381 9.59628C20.1371 9.61884 20.1282 9.62951 20.1182 9.61993C20.0948 9.59729 19.9599 9.72238 19.9768 9.75104C19.9839 9.76301 19.9678 9.77281 19.9411 9.77281C19.9144 9.77281 19.9009 9.78586 19.9111 9.80183C19.9213 9.81779 19.912 9.83165 19.8904 9.83259C19.8687 9.83353 19.7767 9.91226 19.6859 10.0074C19.595 10.1026 19.4632 10.2357 19.3927 10.3032C19.3223 10.3706 19.0453 10.6379 18.7772 10.8971C18.5091 11.1563 18.2321 11.424 18.1617 11.4921C17.8555 11.788 17.0308 12.5853 16.9007 12.7112C16.5199 13.0794 16.2312 13.3425 16.2077 13.3425C16.1934 13.3425 16.1393 13.3817 16.0874 13.4296C16.0355 13.4775 15.9795 13.5167 15.9629 13.5167C15.9462 13.5167 15.9325 13.5297 15.9325 13.5457C15.9325 13.5617 15.9123 13.5747 15.8875 13.5747C15.8627 13.5747 15.8425 13.5878 15.8425 13.6037C15.8425 13.6197 15.8222 13.6328 15.7974 13.6328C15.7727 13.6328 15.7524 13.6458 15.7524 13.6618C15.7524 13.6777 15.7254 13.6908 15.6923 13.6908C15.6593 13.6908 15.6323 13.7039 15.6323 13.7198C15.6323 13.7358 15.5929 13.7488 15.5447 13.7488C15.4966 13.7488 15.4523 13.7627 15.4465 13.7796C15.4407 13.7965 15.3918 13.8116 15.3379 13.8131C15.2839 13.8146 15.2327 13.8268 15.2241 13.8403C15.2013 13.876 14.3712 13.8717 14.3712 13.8359C14.3712 13.8199 14.3315 13.8069 14.2829 13.8069C14.2343 13.8069 14.1862 13.7938 14.176 13.7779C14.1658 13.7619 14.1312 13.7488 14.0991 13.7488C14.0671 13.7488 14.0409 13.7358 14.0409 13.7198C14.0409 13.7039 14.0233 13.6908 14.0018 13.6908C13.9466 13.6908 13.8012 13.6225 13.8009 13.5965C13.8007 13.5845 13.7766 13.5747 13.7472 13.5747C13.7179 13.5747 13.6743 13.5486 13.6505 13.5167C13.6267 13.4847 13.5907 13.4586 13.5704 13.4586C13.5502 13.4586 12.4254 12.3877 11.0708 11.0788C9.71622 9.7699 8.59391 8.69898 8.57672 8.69898C8.55952 8.69898 8.50307 8.6598 8.4512 8.61192C8.39933 8.56403 8.33868 8.52485 8.31639 8.52485C8.29401 8.52485 8.27577 8.51179 8.27577 8.49583C8.27577 8.47987 8.25491 8.46681 8.22946 8.46681C8.20401 8.46681 8.15417 8.44069 8.11874 8.40876C8.0833 8.37684 8.02978 8.35072 7.9999 8.35072C7.96995 8.35072 7.94548 8.33766 7.94548 8.3217C7.94548 8.30573 7.92506 8.29267 7.90007 8.29267C7.87507 8.29267 7.82778 8.27961 7.79497 8.26365C7.76217 8.24769 7.70842 8.22157 7.67562 8.20561C7.64281 8.18964 7.58959 8.17659 7.55731 8.17659C7.52503 8.17659 7.49028 8.16353 7.48007 8.14756C7.46986 8.1316 7.41769 8.11854 7.36417 8.11854C7.31064 8.11854 7.25405 8.10642 7.23836 8.09162C7.19392 8.04976 6.78323 8.02886 5.71631 8.01435L4.73316 8.00093L4.56892 8.15141ZM25.9416 11.4396C26.7782 12.2483 27.4628 12.9204 27.4628 12.9332C27.4628 12.9461 27.5033 12.9976 27.5528 13.0477C27.6024 13.0979 27.6429 13.1574 27.6429 13.1802C27.6429 13.203 27.653 13.2259 27.6654 13.2313C27.6973 13.2449 27.8831 13.6037 27.8831 13.6513C27.8831 13.673 27.8966 13.6908 27.9132 13.6908C27.9297 13.6908 27.9432 13.7365 27.9432 13.7924C27.9432 13.8482 27.9567 13.894 27.9732 13.894C27.9897 13.894 28.0032 13.9454 28.0032 14.0083C28.0032 14.0712 28.0167 14.1308 28.0333 14.1406C28.0504 14.1509 28.0633 14.3006 28.0633 14.4907C28.0633 14.6926 28.0515 14.8227 28.0333 14.8227C28.0167 14.8227 28.0032 14.888 28.0032 14.9678C28.0032 15.0476 27.9897 15.1129 27.9732 15.1129C27.9567 15.1129 27.9432 15.1457 27.9432 15.1858C27.9432 15.2259 27.9311 15.2814 27.9163 15.3091C27.9015 15.3369 27.8442 15.451 27.7888 15.5627C27.7335 15.6745 27.678 15.7702 27.6656 15.7755C27.6531 15.7809 27.6429 15.8038 27.6429 15.8266C27.6429 15.8494 27.6024 15.909 27.5528 15.9591C27.5033 16.0092 27.4628 16.0613 27.4628 16.0748C27.4628 16.0884 26.7871 16.7525 25.9612 17.5507L24.4596 19.0019H23.6188C23.1562 19.0019 22.7544 18.9902 22.7257 18.9761C22.697 18.962 22.5924 18.9132 22.4934 18.8678C22.3672 18.81 22.2456 18.7175 22.088 18.5593C21.9641 18.435 21.7108 18.1866 21.525 18.0073C21.3392 17.8281 21.0622 17.5605 20.9095 17.4128C20.7567 17.2652 20.4797 16.9974 20.2939 16.8179C20.1081 16.6384 19.8311 16.3706 19.6784 16.2229C18.9818 15.5495 18.6448 15.224 18.3873 14.9755C18.2345 14.8281 18.0652 14.6616 18.0111 14.6054L17.9126 14.5034L18.0111 14.4014C18.0652 14.3453 18.2075 14.2049 18.3273 14.0894C18.5167 13.9069 18.7644 13.6677 19.5884 12.8711C19.6875 12.7753 19.9645 12.5076 20.204 12.2761C20.4434 12.0447 20.7204 11.7769 20.8195 11.6812C20.9186 11.5854 21.1939 11.3193 21.4312 11.0899C21.6686 10.8605 21.9599 10.578 22.0785 10.4622C22.1972 10.3464 22.3121 10.2386 22.3338 10.2226C22.4074 10.1686 22.6339 10.063 22.6764 10.063C22.6996 10.063 22.7186 10.0492 22.7186 10.0323C22.7186 10.0154 22.7029 10.0109 22.6839 10.0223C22.6648 10.0336 22.6568 10.0312 22.666 10.0167C22.6753 10.0023 23.0738 9.98575 23.5516 9.97995L24.4205 9.96936L25.9416 11.4396ZM6.89455 10.036C6.89455 10.0509 6.91444 10.063 6.93869 10.063C6.98861 10.063 7.17402 10.1591 7.28084 10.2403C7.31995 10.27 7.36394 10.2873 7.3785 10.2786C7.39307 10.2699 7.405 10.2839 7.405 10.3097C7.405 10.3355 7.41852 10.3486 7.43503 10.3387C7.45154 10.3289 7.46506 10.3386 7.46506 10.3604C7.46506 10.4144 7.6585 10.5919 7.68725 10.5642C7.69994 10.5519 7.70579 10.5615 7.70024 10.5854C7.69476 10.6094 7.70715 10.6257 7.72779 10.6217C7.74843 10.6177 7.76194 10.6308 7.75782 10.6507C7.75369 10.6707 7.7672 10.6837 7.78784 10.6797C7.80849 10.6758 7.822 10.6888 7.81787 10.7088C7.81374 10.7287 7.82725 10.7418 7.8479 10.7378C7.86854 10.7338 7.88205 10.7469 7.87792 10.7668C7.87379 10.7868 7.89068 10.7987 7.91545 10.7934C7.94023 10.7881 7.95014 10.7937 7.93745 10.806C7.90877 10.8338 8.09239 11.0208 8.14831 11.0208C8.17083 11.0208 8.18089 11.0338 8.17068 11.0498C8.16047 11.0657 8.17541 11.0788 8.20394 11.0788C8.23246 11.0788 8.2474 11.0869 8.23719 11.0968C8.20949 11.1236 8.30055 11.2015 8.33523 11.1807C8.35317 11.17 8.35722 11.1829 8.34529 11.213C8.3302 11.2508 8.33725 11.2586 8.37411 11.245C8.41014 11.2316 8.41795 11.2392 8.40414 11.274C8.39033 11.3088 8.39813 11.3163 8.43416 11.303C8.4702 11.2896 8.478 11.2972 8.46419 11.332C8.45038 11.3668 8.45819 11.3744 8.49422 11.361C8.52852 11.3483 8.53798 11.3554 8.52627 11.385C8.51576 11.4114 8.52822 11.4271 8.5596 11.4271C8.58707 11.4271 8.60344 11.4369 8.59601 11.4488C8.57822 11.4772 8.65411 11.545 8.67791 11.522C8.68796 11.5124 8.69615 11.527 8.69615 11.5545C8.69615 11.5821 8.70966 11.5966 8.72617 11.5867C8.74269 11.5768 8.7562 11.5868 8.7562 11.609C8.7562 11.6627 8.88967 11.7817 8.91857 11.7539C8.9311 11.7417 8.93688 11.7514 8.93133 11.7753C8.92585 11.7993 8.93824 11.8156 8.95888 11.8116C8.97952 11.8076 8.99303 11.8207 8.9889 11.8406C8.98478 11.8606 8.99829 11.8736 9.01893 11.8697C9.03958 11.8657 9.05309 11.8787 9.04896 11.8987C9.04483 11.9186 9.05834 11.9317 9.07898 11.9277C9.09963 11.9237 9.11314 11.9368 9.10901 11.9567C9.10488 11.9767 9.11839 11.9897 9.13904 11.9857C9.15968 11.9818 9.17319 11.9948 9.16906 12.0148C9.16494 12.0347 9.18183 12.0467 9.2066 12.0414C9.23137 12.036 9.24135 12.0416 9.22882 12.0537C9.19999 12.0817 9.32318 12.2107 9.37873 12.2107C9.40162 12.2107 9.41198 12.2237 9.40177 12.2397C9.39156 12.2557 9.40507 12.2687 9.4318 12.2687C9.45852 12.2687 9.47301 12.2803 9.46393 12.2945C9.45492 12.3086 9.47436 12.327 9.50716 12.3352C9.54004 12.3435 9.56692 12.3725 9.56692 12.3997C9.56692 12.4309 9.5829 12.4431 9.61045 12.4329C9.64108 12.4216 9.64844 12.4307 9.63523 12.4639C9.62141 12.4987 9.62922 12.5063 9.66525 12.4929C9.70129 12.4796 9.70909 12.4871 9.69528 12.5219C9.68147 12.5568 9.68927 12.5643 9.72531 12.551C9.76134 12.5376 9.76915 12.5451 9.75533 12.58C9.74122 12.6156 9.74925 12.6224 9.78844 12.6078C9.81951 12.5963 9.83288 12.6002 9.82177 12.6176C9.8003 12.6511 9.88092 12.7391 9.90862 12.7123C9.9189 12.7024 9.92723 12.7169 9.92723 12.7445C9.92723 12.772 9.94075 12.7865 9.95726 12.7766C9.97378 12.7667 9.98729 12.7765 9.98729 12.7982C9.98729 12.8523 10.1807 13.0297 10.2095 13.002C10.2222 12.9898 10.228 12.9993 10.2225 13.0233C10.217 13.0472 10.2294 13.0636 10.25 13.0596C10.2707 13.0556 10.2842 13.0686 10.28 13.0886C10.2759 13.1085 10.2894 13.1216 10.3101 13.1176C10.3307 13.1136 10.3442 13.1267 10.3401 13.1466C10.336 13.1666 10.3495 13.1796 10.3701 13.1757C10.3908 13.1717 10.4043 13.1847 10.4002 13.2047C10.396 13.2246 10.4095 13.2377 10.4302 13.2337C10.4508 13.2297 10.4643 13.2428 10.4602 13.2627C10.4561 13.2827 10.473 13.2946 10.4977 13.2893C10.5225 13.284 10.5325 13.2896 10.52 13.3017C10.4911 13.3296 10.6143 13.4586 10.6699 13.4586C10.6928 13.4586 10.7041 13.4702 10.695 13.4844C10.686 13.4985 10.7054 13.5169 10.7383 13.5252C10.7711 13.5334 10.798 13.5624 10.798 13.5896C10.798 13.6208 10.814 13.633 10.8415 13.6228C10.8722 13.6115 10.8795 13.6206 10.8663 13.6538C10.8525 13.6886 10.8603 13.6962 10.8963 13.6828C10.9308 13.67 10.9401 13.6772 10.9282 13.7071C10.9164 13.7371 10.9257 13.7442 10.9601 13.7314C10.9975 13.7176 11.0041 13.7255 10.9883 13.7652C10.9725 13.8049 10.9791 13.8128 11.0164 13.7989C11.0508 13.7861 11.0602 13.7932 11.0485 13.8229C11.0379 13.8495 11.0506 13.8649 11.0829 13.8649C11.111 13.8649 11.141 13.8909 11.1495 13.9227C11.1581 13.9544 11.1771 13.9732 11.1917 13.9645C11.2064 13.9557 11.2184 13.9664 11.2184 13.9881C11.2184 14.0422 11.4118 14.2197 11.4406 14.1919C11.4533 14.1797 11.4591 14.1893 11.4536 14.2132C11.4481 14.2371 11.4605 14.2535 11.4811 14.2495C11.5018 14.2455 11.5153 14.2585 11.5111 14.2785C11.507 14.2985 11.5205 14.3115 11.5412 14.3075C11.5618 14.3035 11.5753 14.3166 11.5712 14.3365C11.5671 14.3565 11.5806 14.3696 11.6012 14.3656C11.6219 14.3616 11.6354 14.3746 11.6312 14.3946C11.6271 14.4145 11.6384 14.4283 11.6562 14.4252C11.7665 14.4061 11.6216 14.5796 11.1095 15.0793C10.7909 15.3903 10.5385 15.6576 10.5486 15.6735C10.5588 15.6894 10.5519 15.6933 10.5332 15.6821C10.4919 15.6573 9.91703 16.2054 9.94255 16.2453C9.95276 16.2612 9.93895 16.2651 9.91035 16.2545C9.86958 16.2395 9.86365 16.249 9.87844 16.3056C9.8885 16.344 9.88873 16.3584 9.87897 16.3378C9.86553 16.3093 9.85149 16.3083 9.81959 16.3339C9.79654 16.3524 9.78536 16.3793 9.79467 16.3939C9.80398 16.4084 9.79369 16.4167 9.77185 16.4124C9.74978 16.4079 9.73657 16.4238 9.74205 16.4479C9.7476 16.4718 9.74174 16.4814 9.72906 16.4692C9.70016 16.4412 9.50333 16.622 9.52525 16.6564C9.53411 16.6702 9.52345 16.6779 9.50161 16.6736C9.47969 16.6691 9.4655 16.6828 9.47008 16.704C9.47458 16.7251 9.46603 16.7351 9.45094 16.7261C9.43593 16.7171 9.408 16.7279 9.38893 16.7502C9.36244 16.781 9.36341 16.7946 9.39299 16.8076C9.41431 16.817 9.39937 16.8168 9.35966 16.8071C9.30111 16.7928 9.2912 16.7985 9.30681 16.8379C9.31777 16.8655 9.31372 16.8789 9.2972 16.869C9.25952 16.8465 8.68819 17.3987 8.71146 17.4352C8.72167 17.4511 8.70786 17.455 8.67926 17.4445C8.6382 17.4292 8.63286 17.4384 8.6496 17.4955C8.66522 17.5487 8.66267 17.555 8.63887 17.5217C8.60667 17.4767 8.49016 17.5896 8.50946 17.6472C8.51388 17.6604 8.50585 17.6642 8.49166 17.6557C8.45526 17.634 8.20934 17.8827 8.23757 17.9127C8.25033 17.9262 8.24485 17.9285 8.22548 17.9178C8.20431 17.9061 7.99135 18.0895 7.69258 18.3769C7.41679 18.6422 7.16134 18.8638 7.11953 18.8739C7.07809 18.884 7.03673 18.9038 7.02764 18.918C7.01856 18.9322 6.97893 18.9438 6.93959 18.9438C6.90026 18.9438 6.85972 18.9569 6.84951 18.9728C6.8381 18.9907 6.58453 19.0019 6.18893 19.0019H5.54688L4.02131 17.5261C3.18222 16.7145 2.49146 16.0329 2.48628 16.0116C2.4811 15.9902 2.45069 15.9508 2.41872 15.9239C2.38674 15.8971 2.36054 15.8538 2.36054 15.8278C2.36054 15.8017 2.34703 15.7804 2.33051 15.7804C2.314 15.7804 2.30049 15.7608 2.30049 15.7369C2.30049 15.7129 2.28697 15.6933 2.27046 15.6933C2.25394 15.6933 2.24021 15.6639 2.23998 15.628C2.23961 15.5752 2.23398 15.5711 2.21041 15.6063C2.18826 15.6394 2.18121 15.6277 2.18083 15.5572C2.1806 15.5063 2.16687 15.4565 2.15035 15.4466C2.13384 15.4368 2.12033 15.4033 2.12033 15.3723C2.12033 15.3414 2.10681 15.316 2.0903 15.316C2.07379 15.316 2.06027 15.2761 2.06027 15.2272C2.06027 15.1755 2.04774 15.146 2.03025 15.1564C2.01186 15.1674 2.00022 15.1223 2.00022 15.0403C2.00022 14.9583 1.98858 14.9133 1.97019 14.9242C1.95075 14.9359 1.94017 14.7988 1.94017 14.5342C1.94017 14.2815 1.95158 14.1261 1.97019 14.1261C1.98671 14.1261 2.00022 14.0747 2.00022 14.0118C2.00022 13.9489 2.01373 13.8893 2.03025 13.8794C2.04676 13.8696 2.06027 13.8231 2.06027 13.7761C2.06027 13.7292 2.07379 13.6908 2.0903 13.6908C2.10681 13.6908 2.12033 13.6711 2.12033 13.6469C2.12033 13.6227 2.13384 13.577 2.15035 13.5453C2.16687 13.5136 2.19389 13.4617 2.21041 13.43C2.22692 13.3983 2.24043 13.3518 2.24043 13.3267C2.24043 13.3016 2.25394 13.2891 2.27046 13.299C2.28697 13.3089 2.30049 13.2966 2.30049 13.2717C2.30049 13.2468 2.314 13.2264 2.33051 13.2264C2.34703 13.2264 2.36054 13.2032 2.36054 13.1748C2.36054 13.1464 2.38756 13.1043 2.42059 13.0813C2.45362 13.0583 2.48065 13.0239 2.48065 13.0048C2.48065 12.9856 3.17133 12.3025 4.01545 11.4866L5.55026 10.0032L6.22241 10.0061C6.61485 10.0078 6.89455 10.0202 6.89455 10.036ZM14.6414 16.3318C14.6414 16.3478 14.6009 16.3608 14.5513 16.3608C14.5018 16.3608 14.4612 16.3739 14.4612 16.3899C14.4612 16.4058 14.4372 16.4189 14.4078 16.4189C14.3784 16.4189 14.3351 16.4447 14.3116 16.4763C14.2852 16.5116 14.2613 16.5219 14.2493 16.5031C14.2383 16.486 14.0261 16.6725 13.7675 16.9265C13.5132 17.1761 13.1915 17.4873 13.0526 17.6179C12.9135 17.7486 12.623 18.0301 12.407 18.2435C12.1909 18.457 11.9137 18.7247 11.7911 18.8385C11.6684 18.9523 11.3914 19.22 11.1755 19.4335C10.9596 19.6469 10.6834 19.9147 10.5617 20.0284C10.203 20.3637 9.55798 20.9943 9.47684 21.0891C9.43555 21.1373 9.38743 21.1771 9.36987 21.1777C9.35238 21.1782 9.31184 21.2014 9.27979 21.2293C9.19354 21.3046 8.88194 21.4978 8.84673 21.4978C8.82999 21.4978 8.81625 21.5108 8.81625 21.5268C8.81625 21.5427 8.79936 21.5561 8.77872 21.5565C8.75808 21.5568 8.70741 21.5827 8.66612 21.6139C8.62483 21.6451 8.56741 21.6709 8.53851 21.6712C8.50961 21.6716 8.48596 21.685 8.48596 21.7009C8.48596 21.7169 8.45894 21.7299 8.42591 21.7299C8.39288 21.7299 8.36585 21.743 8.36585 21.759C8.36585 21.7749 8.33883 21.788 8.3058 21.788C8.27277 21.788 8.24575 21.801 8.24575 21.817C8.24575 21.833 8.20521 21.846 8.15567 21.846C8.10612 21.846 8.06559 21.8591 8.06559 21.8751C8.06559 21.891 8.03263 21.9041 7.99232 21.9041C7.95201 21.9041 7.91065 21.9171 7.90044 21.9331C7.89023 21.9491 7.84211 21.9621 7.79355 21.9621C7.74498 21.9621 7.70527 21.9752 7.70527 21.9911C7.70527 22.0071 7.65122 22.0202 7.58516 22.0202C7.5191 22.0202 7.46506 22.0332 7.46506 22.0492C7.46506 22.0651 7.39157 22.0782 7.30171 22.0782C7.21186 22.0782 7.12996 22.0913 7.11975 22.1072C7.10849 22.1249 6.88427 22.1363 6.54744 22.1363C6.08368 22.1363 5.99375 22.1431 5.99375 22.1783C5.99375 22.2339 12.1078 28.1438 12.1653 28.1438C12.1743 28.1438 12.2176 28.1758 12.2612 28.215C12.3049 28.2541 12.4056 28.3159 12.4851 28.3524C12.5646 28.3889 12.6296 28.4287 12.6296 28.4409C12.6296 28.4531 12.6505 28.4631 12.6759 28.4631C12.7014 28.4631 12.7512 28.4892 12.7867 28.5211C12.8221 28.5531 12.8824 28.5792 12.9205 28.5792C12.9587 28.5792 12.9899 28.5922 12.9899 28.6082C12.9899 28.6242 13.017 28.6372 13.05 28.6372C13.083 28.6372 13.1101 28.6503 13.1101 28.6662C13.1101 28.6822 13.1371 28.6953 13.1701 28.6953C13.2031 28.6953 13.2302 28.7083 13.2302 28.7243C13.2302 28.7403 13.2639 28.7533 13.3052 28.7533C13.3465 28.7533 13.3803 28.7664 13.3803 28.7823C13.3803 28.7983 13.4132 28.8114 13.4536 28.8114C13.4939 28.8114 13.5352 28.8244 13.5454 28.8404C13.5556 28.8563 13.6038 28.8694 13.6523 28.8694C13.7009 28.8694 13.7406 28.8825 13.7406 28.8984C13.7406 28.9144 13.7935 28.9274 13.8582 28.9274C13.9256 28.9274 13.9812 28.9429 13.9883 28.9637C13.998 28.9918 14.2277 29 15.0017 29C15.7757 29 16.0054 28.9918 16.0151 28.9637C16.0223 28.9429 16.0779 28.9274 16.1452 28.9274C16.2099 28.9274 16.2628 28.9144 16.2628 28.8984C16.2628 28.8825 16.3034 28.8694 16.3529 28.8694C16.4025 28.8694 16.443 28.8563 16.443 28.8404C16.443 28.8244 16.4835 28.8114 16.5331 28.8114C16.5826 28.8114 16.6232 28.7983 16.6232 28.7823C16.6232 28.7664 16.6475 28.7533 16.6772 28.7533C16.7443 28.7533 16.8929 28.6884 16.8932 28.659C16.8933 28.647 16.9204 28.6372 16.9535 28.6372C16.9865 28.6372 17.0135 28.6242 17.0135 28.6082C17.0135 28.5922 17.0405 28.5792 17.0736 28.5792C17.1066 28.5792 17.1336 28.5661 17.1336 28.5502C17.1336 28.5342 17.1606 28.5211 17.1937 28.5211C17.2267 28.5211 17.2537 28.5081 17.2537 28.4921C17.2537 28.4761 17.2807 28.4631 17.3138 28.4631C17.3468 28.4631 17.3738 28.451 17.3738 28.4364C17.3738 28.4217 17.4144 28.4011 17.4639 28.3905C17.5134 28.38 17.554 28.3622 17.554 28.3509C17.554 28.3397 17.594 28.3076 17.6429 28.2797C17.6919 28.2517 17.7497 28.213 17.7713 28.1936C17.793 28.1742 17.8711 28.1132 17.9451 28.0579C18.0189 28.0026 18.0845 27.9456 18.0906 27.9313C18.0966 27.917 18.2544 27.7577 18.441 27.5773C18.6277 27.3969 18.7725 27.2416 18.7627 27.2322C18.753 27.2228 18.7674 27.2151 18.7947 27.2151C18.822 27.2151 18.9695 27.0911 19.1225 26.9394C19.4778 26.5871 19.9969 26.0853 20.3614 25.7419C20.5184 25.594 20.6467 25.4515 20.6467 25.425C20.6467 25.3986 20.6547 25.3848 20.6644 25.3941C20.6873 25.4163 21.302 24.8278 21.2859 24.799C21.2792 24.7871 21.2946 24.7773 21.3201 24.7773C21.3825 24.7773 21.8778 24.2957 21.8778 24.2351C21.8778 24.2087 21.8858 24.1949 21.8955 24.2042C21.9184 24.2264 22.5331 23.6379 22.517 23.6091C22.5103 23.5972 22.5257 23.5874 22.5513 23.5874C22.5768 23.5874 22.7228 23.4633 22.8758 23.3116C23.4281 22.764 23.824 22.3821 23.8856 22.3375C23.9201 22.3124 23.952 22.2602 23.9566 22.2214L23.9647 22.1508L23.1915 22.143C22.7103 22.1382 22.4183 22.1245 22.4183 22.1067C22.4183 22.0911 22.3516 22.0782 22.27 22.0782C22.1884 22.0782 22.1132 22.0651 22.103 22.0492C22.0928 22.0332 22.0379 22.0202 21.9811 22.0202C21.9243 22.0202 21.8778 22.0071 21.8778 21.9911C21.8778 21.9752 21.8439 21.9621 21.8024 21.9621C21.7609 21.9621 21.7001 21.9491 21.6673 21.9331C21.6344 21.9171 21.5807 21.891 21.5479 21.8751C21.5151 21.8591 21.461 21.846 21.4278 21.846C21.3945 21.846 21.3674 21.833 21.3674 21.817C21.3674 21.801 21.3403 21.788 21.3073 21.788C21.2743 21.788 21.2473 21.7749 21.2473 21.759C21.2473 21.743 21.2202 21.7299 21.1872 21.7299C21.1542 21.7299 21.1271 21.7169 21.1271 21.7009C21.1271 21.685 21.1001 21.6719 21.0671 21.6719C21.0341 21.6719 21.007 21.6588 21.007 21.6429C21.007 21.6269 20.98 21.6139 20.947 21.6139C20.914 21.6139 20.8869 21.6008 20.8869 21.5848C20.8869 21.5689 20.87 21.5557 20.8494 21.5555C20.8288 21.5553 20.7311 21.4965 20.6323 21.4249C20.5335 21.3532 20.4413 21.2946 20.4273 21.2946C20.4133 21.2946 20.3522 21.2452 20.2916 21.1848C20.2309 21.1245 20.134 21.0431 20.0762 21.004C20.0184 20.9648 19.8392 20.802 19.6781 20.6421C19.517 20.4822 19.3303 20.2992 19.2633 20.2353C19.1221 20.1006 18.1666 19.1774 17.9894 19.0043C17.9233 18.9399 17.6441 18.6701 17.369 18.4049C16.371 17.4431 15.6601 16.7533 15.5845 16.6737C15.4574 16.5398 15.3024 16.4189 15.2578 16.4189C15.2326 16.4189 15.2119 16.4058 15.2119 16.3899C15.2119 16.3739 15.1579 16.3608 15.0918 16.3608C15.0257 16.3608 14.9717 16.3478 14.9717 16.3318C14.9717 16.3159 14.8974 16.3028 14.8066 16.3028C14.7157 16.3028 14.6414 16.3159 14.6414 16.3318ZM16.8901 20.7142C18.0126 21.7996 18.9455 22.6877 18.9631 22.6877C18.9808 22.6877 19.0509 22.7399 19.119 22.8038C19.1871 22.8676 19.2584 22.9199 19.2775 22.9199C19.2967 22.9199 19.3318 22.946 19.3556 22.9779C19.3794 23.0098 19.4197 23.0359 19.4451 23.0359C19.4705 23.0359 19.5081 23.0621 19.5288 23.094C19.5494 23.1259 19.5806 23.152 19.5981 23.152C19.6157 23.152 19.6889 23.1912 19.7609 23.2391C19.8329 23.287 19.9063 23.3262 19.924 23.3262C19.9416 23.3262 19.9561 23.3326 19.9561 23.3405C19.9561 23.366 16.6539 26.5476 16.6275 26.5476C16.6135 26.5476 16.5597 26.5868 16.5078 26.6347C16.4559 26.6826 16.3943 26.7218 16.3707 26.7218C16.3471 26.7218 16.3234 26.7316 16.3179 26.7437C16.3124 26.7557 16.2133 26.8093 16.0977 26.8628C15.9821 26.9163 15.864 26.9717 15.8353 26.986C15.8067 27.0003 15.7492 27.012 15.7077 27.012C15.6662 27.012 15.6323 27.025 15.6323 27.041C15.6323 27.057 15.5647 27.07 15.4822 27.07C15.3996 27.07 15.332 27.0831 15.332 27.099C15.332 27.1166 15.2019 27.1281 15.0017 27.1281C14.8015 27.1281 14.6714 27.1166 14.6714 27.099C14.6714 27.0831 14.5963 27.07 14.5045 27.07C14.4009 27.07 14.3447 27.059 14.3562 27.041C14.3667 27.0245 14.3413 27.012 14.2975 27.012C14.255 27.012 14.1968 27.0003 14.1681 26.986C14.1394 26.9717 14.0214 26.9163 13.9058 26.8628C13.7902 26.8093 13.6911 26.7557 13.6856 26.7437C13.68 26.7316 13.6563 26.7218 13.6327 26.7218C13.6092 26.7218 13.5475 26.6826 13.4957 26.6347C13.4438 26.5868 13.3907 26.5476 13.3776 26.5476C13.3221 26.5476 9.92363 23.2319 9.93917 23.1929C9.9481 23.1705 9.9761 23.152 10.0013 23.152C10.0266 23.152 10.0473 23.139 10.0473 23.123C10.0473 23.107 10.0642 23.094 10.0849 23.094C10.1364 23.0939 10.2912 22.962 10.267 22.9387C10.2563 22.9283 10.2806 22.9199 10.321 22.9199C10.3613 22.9199 10.4139 22.8937 10.4377 22.8618C10.4615 22.8299 10.4923 22.8038 10.506 22.8038C10.5198 22.8038 10.6106 22.7254 10.7079 22.6296C10.8052 22.5339 10.8994 22.4555 10.9174 22.4555C10.9806 22.4555 11.8273 21.6215 11.8029 21.5833C11.7886 21.5609 11.7918 21.5541 11.8113 21.5658C11.8444 21.5855 11.9919 21.4619 12.0452 21.3696C12.0624 21.34 12.0867 21.3182 12.0994 21.3212C12.1394 21.3305 12.3 21.145 12.2796 21.1131C12.2677 21.0944 12.2746 21.0912 12.2975 21.1048C12.3302 21.1244 13.3232 20.197 13.321 20.149C13.3205 20.1405 13.3273 20.134 13.336 20.1344C13.3857 20.1366 14.3452 19.1768 14.3249 19.1452C14.3108 19.123 14.3141 19.1164 14.3335 19.1279C14.3665 19.1476 14.5584 18.9924 14.5488 18.9537C14.5457 18.9414 14.5679 18.9179 14.5981 18.9014C14.6282 18.8848 14.6847 18.8419 14.7236 18.806C14.7625 18.77 14.8066 18.7407 14.8217 18.7407C14.8368 18.7407 15.7676 19.6287 16.8901 20.7142ZM23.6856 22.1868C23.5652 22.1923 23.376 22.1923 23.2652 22.1868C23.1545 22.1812 23.253 22.1767 23.4842 22.1767C23.7154 22.1767 23.806 22.1813 23.6856 22.1868Z" fill="url(#paint0_linear_23_94)"/>
<path fill-rule="evenodd" clip-rule="evenodd" d="M23.2651 22.1871C23.3759 22.1929 23.565 22.1929 23.6854 22.1872C23.8059 22.1815 23.7153 22.1768 23.4841 22.1768C23.2529 22.1767 23.1543 22.1813 23.2651 22.1871Z" fill="url(#paint1_linear_23_94)"/>
<path fill-rule="evenodd" clip-rule="evenodd" d="M23.2651 22.1871C23.3759 22.1929 23.565 22.1929 23.6854 22.1872C23.8059 22.1815 23.7153 22.1768 23.4841 22.1768C23.2529 22.1767 23.1543 22.1813 23.2651 22.1871Z" fill="url(#paint2_linear_23_94)"/>
<path fill-rule="evenodd" clip-rule="evenodd" d="M23.2651 22.1871C23.3759 22.1929 23.565 22.1929 23.6854 22.1872C23.8059 22.1815 23.7153 22.1768 23.4841 22.1768C23.2529 22.1767 23.1543 22.1813 23.2651 22.1871Z" fill="url(#paint3_linear_23_94)"/>
<path fill-rule="evenodd" clip-rule="evenodd" d="M23.2651 22.1871C23.3759 22.1929 23.565 22.1929 23.6854 22.1872C23.8059 22.1815 23.7153 22.1768 23.4841 22.1768C23.2529 22.1767 23.1543 22.1813 23.2651 22.1871Z" fill="url(#paint4_linear_23_94)"/>
<defs>
<linearGradient id="paint0_linear_23_94" x1="15" y1="0" x2="15" y2="29" gradientUnits="userSpaceOnUse">
<stop stop-color="#CD3498"/>
<stop offset="1" stop-color="#991F6F"/>
</linearGradient>
<linearGradient id="paint1_linear_23_94" x1="23.4792" y1="22.1768" x2="23.4792" y2="22.1915" gradientUnits="userSpaceOnUse">
<stop stop-color="#CD3498"/>
<stop offset="1" stop-color="#CD3498"/>
</linearGradient>
<linearGradient id="paint2_linear_23_94" x1="23.4792" y1="22.1768" x2="23.4792" y2="22.1915" gradientUnits="userSpaceOnUse">
<stop stop-color="#CD3498"/>
<stop offset="1" stop-color="#CD3498"/>
</linearGradient>
<linearGradient id="paint3_linear_23_94" x1="23.4792" y1="22.1768" x2="23.4792" y2="22.1915" gradientUnits="userSpaceOnUse">
<stop stop-color="#CD3498"/>
<stop offset="1" stop-color="#CD3498"/>
</linearGradient>
<linearGradient id="paint4_linear_23_94" x1="23.4792" y1="22.1768" x2="23.4792" y2="22.1915" gradientUnits="userSpaceOnUse">
<stop stop-color="#CD3498"/>
<stop offset="1" stop-color="#CD3498"/>
</linearGradient>
</defs>
</svg>
