<svg width="269" height="251" viewBox="0 0 269 251" fill="none" xmlns="http://www.w3.org/2000/svg">
<g clip-path="url(#clip0_43_2526)">
<path d="M231.826 23.0797L6.427 90.2632L12.3972 111.226L237.796 44.0421L231.826 23.0797Z" fill="#EDEDED"/>
<path d="M33.3562 186.552L0.134241 69.9026C-0.112057 69.0377 -0.0124366 68.1082 0.411172 67.3185C0.834781 66.5288 1.54768 65.9436 2.39305 65.6916L222.327 0.136695C223.173 -0.114427 224.081 -0.0121675 224.853 0.421038C225.624 0.854243 226.196 1.583 226.444 2.44733L255.876 105.79L254.965 106.062L225.533 2.71884C225.356 2.10171 224.947 1.58147 224.396 1.27208C223.845 0.962697 223.196 0.889392 222.593 1.06824L2.65839 66.6232C2.05455 66.8032 1.54534 67.2212 1.24276 67.7853C0.940184 68.3494 0.869027 69.0133 1.04495 69.6311L34.2669 186.28L33.3562 186.552Z" fill="#EDEDED"/>
<path d="M207.197 106.27C206.53 106.269 205.88 106.047 205.347 105.638C204.813 105.228 204.423 104.653 204.236 103.998L198.663 84.4328C198.436 83.6297 198.529 82.7671 198.922 82.0341C199.315 81.3011 199.976 80.7575 200.761 80.5227L219.886 74.8223C220.671 74.5893 221.514 74.6844 222.23 75.0867C222.947 75.4891 223.478 76.1657 223.708 76.9683L229.28 96.5332C229.508 97.3362 229.415 98.1989 229.021 98.9319C228.628 99.6649 227.967 100.208 227.182 100.443L208.058 106.144C207.778 106.227 207.488 106.27 207.197 106.27Z" fill="#991F6F"/>
<path d="M32.8425 70.263C32.7852 70.062 32.7171 69.8644 32.6385 69.6711C32.1038 68.3434 31.1083 67.2646 29.8433 66.6422C28.5784 66.0197 27.1332 65.8975 25.7854 66.2989C24.4377 66.7003 23.2825 67.5971 22.5419 68.8169C21.8012 70.0367 21.5273 71.4935 21.7728 72.9074C21.8073 73.1137 21.8532 73.3178 21.9103 73.5188C22.2567 74.7282 22.9767 75.7902 23.9625 76.546C24.9483 77.3017 26.1469 77.7104 27.3787 77.7109C27.9166 77.7121 28.4518 77.6337 28.9676 77.478C30.4156 77.0452 31.6367 76.0426 32.3631 74.69C33.0895 73.3375 33.2619 71.7454 32.8425 70.263ZM28.702 76.5464C27.4945 76.9049 26.1973 76.759 25.0948 76.1404C23.9923 75.5219 23.1746 74.4814 22.8209 73.247C22.7654 73.046 22.721 72.8419 22.688 72.6357C22.5101 71.4708 22.7531 70.2795 23.3715 69.2845C23.9898 68.2895 24.9413 67.5591 26.0479 67.2297C27.1545 66.9003 28.3405 66.9945 29.3842 67.4947C30.4278 67.995 31.2576 68.867 31.7184 69.9477C31.8043 70.1374 31.8757 70.3337 31.9319 70.5348C32.2819 71.7701 32.1384 73.0971 31.5328 74.2242C30.9272 75.3514 29.9091 76.1866 28.702 76.5464Z" fill="#991F6F"/>
<path d="M18.8831 74.4213C18.5796 73.3549 18.6087 72.2183 18.9665 71.1696C19.3242 70.121 19.9928 69.2127 20.879 68.5711C20.0487 68.5298 19.2208 68.6919 18.4642 69.0442C17.7076 69.3964 17.0442 69.9285 16.5293 70.5961C16.0144 71.2638 15.6629 72.0476 15.5041 72.8823C15.3452 73.7171 15.3837 74.5786 15.6162 75.395C15.8488 76.2115 16.2686 76.9593 16.8409 77.5761C17.4131 78.193 18.1211 78.661 18.906 78.9412C19.6908 79.2214 20.5298 79.3057 21.3529 79.1871C22.1761 79.0684 22.9596 78.7503 23.6382 78.2592C22.5538 78.205 21.513 77.8062 20.6606 77.1182C19.8083 76.4303 19.1869 75.4875 18.8831 74.4213Z" fill="#991F6F"/>
<path d="M166.32 98.4679C166.219 98.0966 166.048 97.7493 165.815 97.4459C165.583 97.1425 165.295 96.8889 164.967 96.6996C164.638 96.5103 164.277 96.3891 163.903 96.3428C163.529 96.2966 163.15 96.3262 162.787 96.4301L131.299 105.44L127.908 106.411H149.203L152.594 105.44L164.333 102.083C165.065 101.872 165.685 101.374 166.058 100.696C166.43 100.018 166.525 99.2169 166.32 98.4679Z" fill="#CCCCCC"/>
<path d="M144.043 91.7382C143.838 90.9894 143.351 90.3545 142.688 89.9733C142.025 89.592 141.242 89.4956 140.51 89.7052L93.2616 103.223C92.6014 103.414 92.0297 103.841 91.6497 104.425C91.2696 105.01 91.1063 105.714 91.189 106.411H103.421L106.816 105.44L142.056 95.3578C142.788 95.1468 143.409 94.6472 143.781 93.9686C144.154 93.2899 144.248 92.4878 144.043 91.7382Z" fill="#CCCCCC"/>
<path d="M265.68 105.439H36.6005C35.7203 105.44 34.8764 105.798 34.254 106.435C33.6316 107.072 33.2815 107.935 33.2805 108.836V247.604C33.2815 248.504 33.6316 249.367 34.254 250.004C34.8764 250.641 35.7203 250.999 36.6005 251H265.68C266.56 250.999 267.404 250.641 268.027 250.004C268.649 249.367 268.999 248.504 269 247.604V108.836C268.999 107.935 268.649 107.072 268.026 106.435C267.404 105.798 266.56 105.44 265.68 105.439ZM268.051 247.604C268.051 248.247 267.801 248.864 267.357 249.319C266.912 249.774 266.309 250.029 265.68 250.03H36.6005C35.9716 250.029 35.3686 249.774 34.9239 249.319C34.4792 248.864 34.2293 248.247 34.2291 247.604V108.836C34.2294 108.192 34.4793 107.575 34.924 107.12C35.3686 106.666 35.9716 106.41 36.6005 106.41H265.68C266.309 106.41 266.912 106.666 267.357 107.12C267.801 107.575 268.051 108.192 268.051 108.836V247.604Z" fill="#EDEDED"/>
<path d="M58.8901 124.363C57.7645 124.363 56.6641 124.022 55.7282 123.382C54.7922 122.742 54.0627 121.833 53.632 120.769C53.2012 119.705 53.0885 118.534 53.3081 117.405C53.5277 116.275 54.0698 115.238 54.8657 114.424C55.6617 113.609 56.6758 113.055 57.7798 112.83C58.8838 112.605 60.0282 112.721 61.0682 113.161C62.1081 113.602 62.997 114.348 63.6224 115.306C64.2478 116.263 64.5815 117.389 64.5815 118.541C64.5798 120.084 63.9796 121.564 62.9127 122.656C61.8457 123.747 60.3991 124.361 58.8901 124.363ZM58.8901 113.689C57.9521 113.689 57.0351 113.973 56.2552 114.506C55.4752 115.04 54.8673 115.797 54.5083 116.684C54.1494 117.571 54.0554 118.546 54.2384 119.487C54.4214 120.428 54.8732 121.293 55.5365 121.972C56.1998 122.65 57.0448 123.112 57.9649 123.299C58.8849 123.487 59.8385 123.391 60.7051 123.023C61.5718 122.656 62.3125 122.034 62.8337 121.236C63.3548 120.438 63.633 119.5 63.633 118.541C63.6316 117.254 63.1314 116.021 62.2423 115.111C61.3531 114.202 60.1476 113.69 58.8901 113.689Z" fill="#991F6F"/>
<path d="M50.0438 118.541C50.044 117.43 50.3828 116.347 51.013 115.443C51.6432 114.538 52.5334 113.858 53.5597 113.495C52.7739 113.218 51.9346 113.137 51.1119 113.258C50.2892 113.38 49.5068 113.701 48.8299 114.195C48.153 114.688 47.6012 115.34 47.2205 116.096C46.8398 116.852 46.6411 117.69 46.6411 118.541C46.6411 119.391 46.8398 120.229 47.2205 120.985C47.6012 121.741 48.153 122.393 48.8299 122.887C49.5068 123.38 50.2892 123.701 51.1119 123.823C51.9346 123.945 52.7739 123.863 53.5597 123.586C52.5334 123.224 51.6432 122.543 51.013 121.639C50.3828 120.734 50.044 119.651 50.0438 118.541Z" fill="#991F6F"/>
<path d="M81.9612 187.332C80.8295 187.33 79.7445 186.87 78.9443 186.051C78.1441 185.233 77.6939 184.123 77.6926 182.965V169.865C77.6926 168.706 78.1423 167.596 78.9428 166.777C79.7434 165.958 80.8291 165.498 81.9612 165.498C83.0933 165.498 84.179 165.958 84.9795 166.777C85.78 167.596 86.2297 168.706 86.2297 169.865V182.965C86.2284 184.123 85.7783 185.233 84.9781 186.051C84.1778 186.87 83.0929 187.33 81.9612 187.332Z" fill="#991F6F"/>
<path d="M93.344 187.332C92.2123 187.33 91.1273 186.87 90.3271 186.051C89.5269 185.233 89.0767 184.123 89.0754 182.965V169.865C89.0754 168.706 89.5252 167.596 90.3257 166.777C91.1262 165.958 92.2119 165.498 93.344 165.498C94.4761 165.498 95.5618 165.958 96.3623 166.777C97.1628 167.596 97.6125 168.706 97.6125 169.865V182.965C97.6112 184.123 97.1611 185.233 96.3609 186.051C95.5607 186.87 94.4757 187.33 93.344 187.332Z" fill="#991F6F"/>
<path d="M104.727 187.332C103.595 187.33 102.51 186.87 101.71 186.051C100.91 185.233 100.46 184.123 100.458 182.965V169.865C100.458 168.706 100.908 167.596 101.708 166.777C102.509 165.958 103.595 165.498 104.727 165.498C105.859 165.498 106.945 165.958 107.745 166.777C108.546 167.596 108.995 168.706 108.995 169.865V182.965C108.994 184.123 108.544 185.233 107.744 186.051C106.943 186.87 105.859 187.33 104.727 187.332Z" fill="#991F6F"/>
<path d="M122.275 187.332C121.143 187.33 120.059 186.87 119.258 186.051C118.458 185.233 118.008 184.123 118.007 182.965V169.865C118.007 168.706 118.456 167.596 119.257 166.777C120.057 165.958 121.143 165.498 122.275 165.498C123.407 165.498 124.493 165.958 125.293 166.777C126.094 167.596 126.544 168.706 126.544 169.865V182.965C126.542 184.123 126.092 185.233 125.292 186.051C124.492 186.87 123.407 187.33 122.275 187.332Z" fill="#991F6F"/>
<path d="M133.658 187.332C132.526 187.33 131.441 186.87 130.641 186.051C129.841 185.233 129.391 184.123 129.389 182.965V169.865C129.389 168.706 129.839 167.596 130.64 166.777C131.44 165.958 132.526 165.498 133.658 165.498C134.79 165.498 135.876 165.958 136.676 166.777C137.477 167.596 137.927 168.706 137.927 169.865V182.965C137.925 184.123 137.475 185.233 136.675 186.051C135.875 186.87 134.79 187.33 133.658 187.332Z" fill="#991F6F"/>
<path d="M145.041 187.332C143.909 187.33 142.824 186.87 142.024 186.051C141.224 185.233 140.774 184.123 140.772 182.965V169.865C140.772 168.706 141.222 167.596 142.023 166.777C142.823 165.958 143.909 165.498 145.041 165.498C146.173 165.498 147.259 165.958 148.059 166.777C148.86 167.596 149.31 168.706 149.31 169.865V182.965C149.308 184.123 148.858 185.233 148.058 186.051C147.258 186.87 146.173 187.33 145.041 187.332Z" fill="#991F6F"/>
<path d="M162.589 187.332C161.458 187.33 160.373 186.87 159.572 186.051C158.772 185.233 158.322 184.123 158.321 182.965V169.865C158.321 168.706 158.771 167.596 159.571 166.777C160.372 165.958 161.457 165.498 162.589 165.498C163.721 165.498 164.807 165.958 165.608 166.777C166.408 167.596 166.858 168.706 166.858 169.865V182.965C166.857 184.123 166.406 185.233 165.606 186.051C164.806 186.87 163.721 187.33 162.589 187.332Z" fill="#991F6F"/>
<path d="M173.972 187.332C172.84 187.33 171.756 186.87 170.955 186.051C170.155 185.233 169.705 184.123 169.704 182.965V169.865C169.704 168.706 170.153 167.596 170.954 166.777C171.754 165.958 172.84 165.498 173.972 165.498C175.104 165.498 176.19 165.958 176.99 166.777C177.791 167.596 178.241 168.706 178.241 169.865V182.965C178.239 184.123 177.789 185.233 176.989 186.051C176.189 186.87 175.104 187.33 173.972 187.332Z" fill="#991F6F"/>
<path d="M185.355 187.332C184.223 187.33 183.138 186.87 182.338 186.051C181.538 185.233 181.088 184.123 181.086 182.965V169.865C181.086 168.706 181.536 167.596 182.337 166.777C183.137 165.958 184.223 165.498 185.355 165.498C186.487 165.498 187.573 165.958 188.373 166.777C189.174 167.596 189.624 168.706 189.624 169.865V182.965C189.622 184.123 189.172 185.233 188.372 186.051C187.572 186.87 186.487 187.33 185.355 187.332Z" fill="#991F6F"/>
<path d="M202.904 187.332C201.772 187.33 200.687 186.87 199.887 186.051C199.086 185.233 198.636 184.123 198.635 182.965V169.865C198.635 168.706 199.085 167.596 199.885 166.777C200.686 165.958 201.771 165.498 202.904 165.498C204.036 165.498 205.121 165.958 205.922 166.777C206.722 167.596 207.172 168.706 207.172 169.865V182.965C207.171 184.123 206.721 185.233 205.92 186.051C205.12 186.87 204.035 187.33 202.904 187.332Z" fill="#991F6F"/>
<path d="M214.286 187.332C213.155 187.33 212.07 186.87 211.27 186.051C210.469 185.233 210.019 184.123 210.018 182.965V169.865C210.018 168.706 210.468 167.596 211.268 166.777C212.069 165.958 213.154 165.498 214.286 165.498C215.418 165.498 216.504 165.958 217.305 166.777C218.105 167.596 218.555 168.706 218.555 169.865V182.965C218.554 184.123 218.104 185.233 217.303 186.051C216.503 186.87 215.418 187.33 214.286 187.332Z" fill="#991F6F"/>
<path d="M225.669 187.332C224.537 187.33 223.453 186.87 222.652 186.051C221.852 185.233 221.402 184.123 221.401 182.965V169.865C221.401 168.706 221.85 167.596 222.651 166.777C223.451 165.958 224.537 165.498 225.669 165.498C226.801 165.498 227.887 165.958 228.688 166.777C229.488 167.596 229.938 168.706 229.938 169.865V182.965C229.936 184.123 229.486 185.233 228.686 186.051C227.886 186.87 226.801 187.33 225.669 187.332Z" fill="#991F6F"/>
<path d="M110.901 235.933H49.5095C48.7488 235.933 48.0193 235.624 47.4814 235.074C46.9435 234.523 46.6414 233.777 46.6414 232.999C46.6414 232.221 46.9435 231.474 47.4814 230.924C48.0193 230.374 48.7488 230.065 49.5095 230.065H110.901C111.662 230.065 112.391 230.374 112.929 230.924C113.467 231.474 113.769 232.221 113.769 232.999C113.769 233.777 113.467 234.523 112.929 235.074C112.391 235.624 111.662 235.933 110.901 235.933Z" fill="#E6E6E6"/>
<path d="M91.2183 223.318H69.1924C68.4317 223.318 67.7022 223.009 67.1643 222.458C66.6264 221.908 66.3242 221.162 66.3242 220.384C66.3242 219.605 66.6264 218.859 67.1643 218.309C67.7022 217.759 68.4317 217.449 69.1924 217.449H91.2183C91.979 217.449 92.7085 217.759 93.2464 218.309C93.7843 218.859 94.0864 219.605 94.0864 220.384C94.0864 221.162 93.7843 221.908 93.2464 222.458C92.7085 223.009 91.979 223.318 91.2183 223.318Z" fill="#E6E6E6"/>
<path d="M267.88 134.445H34.0583V135.415H267.88V134.445Z" fill="#EDEDED"/>
</g>
<defs>
<clipPath id="clip0_43_2526">
<rect width="269" height="251" fill="white"/>
</clipPath>
</defs>
</svg>
