<svg width="344" height="331" viewBox="0 0 344 331" fill="none" xmlns="http://www.w3.org/2000/svg">
<path d="M113.651 39.667C113.651 39.667 61.5209 65.2202 35.5214 104.596C9.5219 143.972 11.579 194.628 43.172 232.23C74.7649 269.831 135.151 264.893 185.712 288.711C236.273 312.53 292.056 307.625 315.964 257.16C339.872 206.696 303.821 187.836 297.629 129.434C291.437 71.0326 236.72 -14.4846 113.651 39.667Z" fill="#991F6F"/>
<path opacity="0.7" d="M113.651 39.667C113.651 39.667 61.5209 65.2202 35.5214 104.596C9.5219 143.972 11.579 194.628 43.172 232.23C74.7649 269.831 135.151 264.893 185.712 288.711C236.273 312.53 292.056 307.625 315.964 257.16C339.872 206.696 303.821 187.836 297.629 129.434C291.437 71.0326 236.72 -14.4846 113.651 39.667Z" fill="white"/>
<path d="M267.116 268.593C267.116 268.593 237.821 219.122 244.584 206.504C251.347 193.887 268.616 216.573 268.616 216.573C268.616 216.573 253.597 170.432 261.86 150.274C270.123 130.116 284.392 150.274 285.142 164.54C285.892 178.806 282.135 203.135 282.135 203.135C282.135 203.135 288.148 152.823 302.417 167.896C316.686 182.97 284.392 233.335 284.392 233.335C284.392 233.335 306.174 221.591 305.417 236.691C304.66 251.792 279.135 265.217 279.135 265.217" fill="#991F6F"/>
<path d="M267.364 259.365C267.364 259.365 240.257 235.03 253.466 224.127C266.676 213.223 273.625 235.871 273.625 235.871C273.625 235.871 259.025 166.235 282.658 163.713C306.291 161.19 288.912 224.12 288.912 224.12C288.912 224.12 309.07 197.276 307.681 219.122C306.291 240.968 276.404 259.398 276.404 259.398" stroke="#263238" stroke-miterlimit="10"/>
<path d="M280.676 254.936L262.362 235.837" stroke="#263238" stroke-miterlimit="10"/>
<path d="M276.865 256.406L281.825 200.579" stroke="#263238" stroke-miterlimit="10"/>
<path d="M276.101 252.361L292.51 231.428" stroke="#263238" stroke-miterlimit="10"/>
<path d="M299.837 248.468H249.166L254.237 305.976H294.767L299.837 248.468Z" fill="#263238"/>
<path d="M106.399 181.779C99.8111 178.668 93.001 176.014 86.0207 173.835C75.9621 170.856 64.0941 173.583 63.8327 176.807C63.5712 180.031 65.36 178.555 67.7061 182.05C70.0522 185.545 68.9927 193.714 72.3501 201.162C75.7075 208.609 85.7592 212.33 85.7592 212.33L106.399 181.779Z" fill="#991F6F" stroke="#263238" stroke-linecap="round" stroke-linejoin="round"/>
<path opacity="0.3" d="M99.6912 188.981C99.6912 188.981 84.2112 179.548 75.1846 176.317C66.1581 173.086 65.6421 177.807 65.6421 177.807C67.1271 178.331 68.4015 179.294 69.2827 180.558C70.1639 181.823 70.6066 183.323 70.5475 184.844C70.5475 190.418 73.444 201.963 80.4823 204.346C87.5205 206.729 99.6912 188.981 99.6912 188.981Z" fill="black"/>
<path d="M210.147 199.522C214.193 198.043 216.135 193.455 214.484 189.275C212.834 185.095 208.217 182.906 204.171 184.384C200.125 185.863 198.183 190.451 199.833 194.631C201.483 198.811 206.101 201 210.147 199.522Z" fill="#991F6F" stroke="#263238" stroke-linecap="round" stroke-linejoin="round"/>
<path d="M99.2302 278.583L107.913 303.646C108.148 304.325 108.6 304.916 109.204 305.334C109.808 305.752 110.533 305.977 111.277 305.976H124.81C125.502 305.977 126.18 305.783 126.758 305.417C127.337 305.051 127.791 304.53 128.064 303.917L134.119 290.399" fill="#991F6F"/>
<mask id="mask0_15_511" style="mask-type:luminance" maskUnits="userSpaceOnUse" x="99" y="278" width="36" height="28">
<path d="M99.2302 278.583L107.913 303.646C108.148 304.325 108.6 304.916 109.204 305.334C109.808 305.752 110.533 305.977 111.277 305.976H124.81C125.502 305.977 126.18 305.783 126.758 305.417C127.337 305.051 127.791 304.53 128.064 303.917L134.119 290.399" fill="white"/>
</mask>
<g mask="url(#mask0_15_511)">
<path opacity="0.3" d="M103.585 278.583L110.768 303.646C110.904 304.275 111.251 304.844 111.756 305.265C112.26 305.686 112.895 305.936 113.561 305.976H124.783C125.399 305.946 125.99 305.731 126.473 305.362C126.957 304.993 127.309 304.488 127.48 303.917L132.502 290.399" fill="black"/>
</g>
<path d="M99.2302 278.583L107.913 303.646C108.148 304.325 108.6 304.916 109.204 305.334C109.808 305.752 110.533 305.977 111.277 305.976H124.81C125.502 305.977 126.18 305.783 126.758 305.417C127.337 305.051 127.791 304.53 128.064 303.917L134.119 290.399" stroke="#263238" stroke-linecap="round" stroke-linejoin="round"/>
<path d="M164.535 278.583L155.86 303.646C155.624 304.325 155.172 304.916 154.568 305.334C153.965 305.752 153.239 305.977 152.495 305.976H138.976C138.284 305.977 137.606 305.783 137.028 305.417C136.449 305.051 135.995 304.53 135.722 303.917L129.667 290.399" fill="#263238"/>
<path d="M164.535 278.583L155.86 303.646C155.624 304.325 155.172 304.916 154.568 305.334C153.965 305.752 153.239 305.977 152.495 305.976H138.976C138.284 305.977 137.606 305.783 137.028 305.417C136.449 305.051 135.995 304.53 135.722 303.917L129.667 290.399" stroke="#263238" stroke-linecap="round" stroke-linejoin="round"/>
<path d="M193.287 278.583L184.604 303.646C184.369 304.325 183.917 304.916 183.313 305.334C182.709 305.752 181.984 305.977 181.24 305.976H167.707C167.015 305.977 166.337 305.783 165.759 305.417C165.18 305.051 164.726 304.53 164.453 303.917L158.398 290.399" fill="#991F6F"/>
<mask id="mask1_15_511" style="mask-type:luminance" maskUnits="userSpaceOnUse" x="158" y="278" width="36" height="28">
<path d="M193.287 278.583L184.604 303.646C184.369 304.325 183.917 304.916 183.313 305.334C182.709 305.752 181.984 305.977 181.24 305.976H167.707C167.015 305.977 166.337 305.783 165.759 305.417C165.18 305.051 164.726 304.53 164.453 303.917L158.398 290.399" fill="white"/>
</mask>
<g mask="url(#mask1_15_511)">
<path opacity="0.3" d="M187.136 278.583L181.199 303.646C180.868 305.036 179.946 305.976 178.901 305.976H169.647C168.684 305.976 167.81 305.169 167.425 303.917L161.673 290.677" fill="black"/>
</g>
<path d="M193.287 278.583L184.604 303.646C184.369 304.325 183.917 304.916 183.313 305.334C182.709 305.752 181.984 305.977 181.24 305.976H167.707C167.015 305.977 166.337 305.783 165.759 305.417C165.18 305.051 164.726 304.53 164.453 303.917L158.398 290.399" stroke="#263238" stroke-linecap="round" stroke-linejoin="round"/>
<path d="M146.888 295.073C187.99 295.073 221.309 265.998 221.309 230.131C221.309 194.264 187.99 165.189 146.888 165.189C105.786 165.189 72.467 194.264 72.467 230.131C72.467 265.998 105.786 295.073 146.888 295.073Z" fill="#991F6F"/>
<mask id="mask2_15_511" style="mask-type:luminance" maskUnits="userSpaceOnUse" x="72" y="165" width="150" height="131">
<path d="M146.888 295.073C187.99 295.073 221.309 265.998 221.309 230.131C221.309 194.264 187.99 165.189 146.888 165.189C105.786 165.189 72.467 194.264 72.467 230.131C72.467 265.998 105.786 295.073 146.888 295.073Z" fill="white"/>
</mask>
<g mask="url(#mask2_15_511)">
<path opacity="0.3" d="M198.144 185.757C202.508 194.085 204.782 203.281 204.783 212.608C204.783 248.475 171.463 277.55 130.362 277.55C115.067 277.625 100.075 273.445 87.1902 265.515C100.166 282.27 122.134 293.319 147.046 293.319C186.95 293.319 219.286 265.111 219.286 230.31C219.245 212.893 211.168 197.157 198.144 185.757Z" fill="black"/>
</g>
<path d="M146.888 295.073C187.99 295.073 221.309 265.998 221.309 230.131C221.309 194.264 187.99 165.189 146.888 165.189C105.786 165.189 72.467 194.264 72.467 230.131C72.467 265.998 105.786 295.073 146.888 295.073Z" stroke="#263238" stroke-linecap="round" stroke-linejoin="round"/>
<path d="M215.048 235.957C213.424 249.038 207.157 260.907 197.717 270.281" stroke="#991F6F" stroke-width="2" stroke-linecap="round" stroke-linejoin="round"/>
<path d="M213.817 215.812C214.915 220.193 215.469 224.684 215.468 229.191" stroke="#991F6F" stroke-width="2" stroke-linecap="round" stroke-linejoin="round"/>
<path d="M128.436 169.24C134.568 167.861 140.845 167.168 147.143 167.175C151.174 167.174 155.201 167.457 159.189 168.022" stroke="#263238" stroke-width="4" stroke-linecap="round" stroke-linejoin="round"/>
<path d="M161.487 214.574C161.487 214.574 168.711 209.854 168.973 201.169C169.234 192.483 157.359 179.826 147.817 174.609C138.274 169.393 131.305 170.392 131.05 174.113C130.796 177.833 127.438 182.057 126.152 189.253C124.865 196.448 124.342 207.127 134.408 210.602" fill="#991F6F"/>
<path d="M161.487 214.574C161.487 214.574 168.711 209.854 168.973 201.169C169.234 192.483 157.359 179.826 147.817 174.609C138.274 169.393 131.305 170.392 131.05 174.113C130.796 177.833 127.438 182.057 126.152 189.253C124.865 196.448 124.342 207.127 134.408 210.602" stroke="#263238" stroke-linecap="round" stroke-linejoin="round"/>
<path opacity="0.3" d="M145.945 211.787L147.425 211.999C153.768 212.879 155.997 208.894 155.811 202.91C155.557 194.469 143.95 176.595 139.045 174.113C134.139 171.63 132.598 175.106 132.598 175.106C132.598 175.106 133.286 175.549 130.871 183.261C129.757 186.823 125.608 199.242 129.716 204.75C133.348 209.616 140.097 210.946 145.945 211.787Z" fill="black"/>
<path opacity="0.3" d="M166.496 203.234H166.4C166.31 203.223 166.223 203.194 166.144 203.15C166.066 203.106 165.997 203.048 165.942 202.979C165.887 202.909 165.847 202.83 165.824 202.745C165.801 202.661 165.795 202.572 165.808 202.486C165.882 201.977 165.926 201.464 165.939 200.95C166.076 196.316 162.148 189.663 155.687 183.526C155.623 183.465 155.571 183.392 155.536 183.312C155.501 183.231 155.482 183.145 155.482 183.058C155.481 182.97 155.498 182.884 155.532 182.803C155.567 182.722 155.617 182.648 155.681 182.586C155.744 182.524 155.82 182.475 155.904 182.441C155.987 182.407 156.077 182.389 156.168 182.388C156.258 182.388 156.348 182.404 156.432 182.437C156.516 182.47 156.593 182.518 156.658 182.58C163.483 189.067 167.466 195.945 167.315 200.983C167.3 201.546 167.254 202.107 167.177 202.665C167.154 202.823 167.072 202.967 166.947 203.072C166.822 203.176 166.662 203.234 166.496 203.234Z" fill="black"/>
<path opacity="0.3" d="M162.795 211.218C162.664 211.218 162.537 211.183 162.426 211.116C162.316 211.05 162.228 210.954 162.172 210.841C162.115 210.728 162.094 210.602 162.109 210.478C162.124 210.354 162.176 210.236 162.258 210.139C163.392 208.802 164.298 207.3 164.941 205.69C165.006 205.526 165.136 205.393 165.302 205.321C165.469 205.249 165.658 205.244 165.829 205.306C165.999 205.368 166.137 205.493 166.212 205.654C166.287 205.814 166.292 205.996 166.228 206.16C165.533 207.903 164.552 209.528 163.324 210.973C163.26 211.049 163.18 211.11 163.088 211.152C162.996 211.195 162.896 211.217 162.795 211.218Z" fill="black"/>
<path opacity="0.3" d="M112.693 242.696C114.728 234.85 107.635 226.39 96.8517 223.801C86.0681 221.212 75.6768 225.474 73.642 233.321C71.6073 241.168 78.6996 249.628 89.4831 252.217C100.267 254.806 110.658 250.543 112.693 242.696Z" fill="black"/>
<path d="M111.725 241.271C113.759 233.425 106.667 224.965 95.8834 222.376C85.0999 219.787 74.7086 224.049 72.6738 231.896C70.639 239.743 77.7313 248.203 88.5149 250.792C99.2985 253.381 109.69 249.118 111.725 241.271Z" fill="#991F6F" stroke="#263238" stroke-linecap="round" stroke-linejoin="round"/>
<path d="M86.1238 234.216C86.2477 235.99 85.539 237.486 84.5483 237.526C83.5576 237.565 82.6425 236.202 82.4843 234.427C82.3261 232.653 83.0691 231.151 84.0667 231.117C85.0643 231.084 86 232.435 86.1238 234.216Z" stroke="#263238" stroke-linecap="round" stroke-linejoin="round"/>
<path d="M99.7601 237.506C99.8839 239.286 99.1753 240.776 98.1845 240.816C97.1938 240.855 96.2788 239.492 96.1205 237.711C95.9623 235.93 96.7053 234.441 97.7029 234.401C98.7005 234.361 99.6156 235.725 99.7601 237.506Z" stroke="#263238" stroke-linecap="round" stroke-linejoin="round"/>
<path d="M122.264 242.107C122.119 243.381 121.81 244.633 121.343 245.834C117.393 256.101 103.097 260.543 88.9722 256.121" stroke="#263238" stroke-width="3" stroke-linecap="round" stroke-linejoin="round"/>
<path d="M119.96 241.134H124.342" stroke="#263238" stroke-width="3" stroke-linecap="round" stroke-linejoin="round"/>
<path d="M92.0406 213.647C91.559 215.574 90.3275 216.957 89.2886 216.706C88.2497 216.454 87.7956 214.72 88.2841 212.773C88.7726 210.827 89.9972 209.463 91.0361 209.708C92.075 209.953 92.5291 211.714 92.0406 213.647Z" fill="#263238" stroke="#263238" stroke-linecap="round" stroke-linejoin="round"/>
<path d="M104.729 216.309C105.213 214.375 104.764 212.613 103.726 212.372C102.688 212.131 101.454 213.503 100.97 215.437C100.486 217.371 100.935 219.133 101.973 219.374C103.011 219.615 104.245 218.242 104.729 216.309Z" fill="#263238" stroke="#263238" stroke-linecap="round" stroke-linejoin="round"/>
<path d="M123.675 286.646L131.243 303.924C131.515 304.542 131.969 305.07 132.551 305.44C133.132 305.811 133.814 306.009 134.511 306.01H148.271C148.962 306.009 149.638 305.814 150.216 305.45C150.793 305.085 151.249 304.567 151.525 303.957L159.781 285.6H159.423" fill="#991F6F"/>
<mask id="mask3_15_511" style="mask-type:luminance" maskUnits="userSpaceOnUse" x="123" y="285" width="37" height="22">
<path d="M123.675 286.646L131.243 303.924C131.515 304.542 131.969 305.07 132.551 305.44C133.132 305.811 133.814 306.009 134.511 306.01H148.271C148.962 306.009 149.638 305.814 150.216 305.45C150.793 305.085 151.249 304.567 151.525 303.957L159.781 285.6H159.423" fill="white"/>
</mask>
<g mask="url(#mask3_15_511)">
<path opacity="0.3" d="M139.664 284.442C135.302 284.442 130.225 284.991 126.117 284.077L133.19 303.891C133.358 304.467 133.71 304.977 134.194 305.351C134.679 305.725 135.273 305.944 135.894 305.976H147.232C147.845 305.944 148.432 305.729 148.913 305.361C149.394 304.994 149.744 304.491 149.915 303.924L156.761 283.713L154.009 284.077C145.278 284.991 145.505 284.442 139.664 284.442Z" fill="black"/>
</g>
<path d="M123.675 286.646L131.243 303.924C131.515 304.542 131.969 305.07 132.551 305.44C133.132 305.811 133.814 306.009 134.511 306.01H148.271C148.962 306.009 149.638 305.814 150.216 305.45C150.793 305.085 151.249 304.567 151.525 303.957L159.781 285.6H159.423" stroke="#263238" stroke-linecap="round" stroke-linejoin="round"/>
<path d="M260.752 17.5033L222.699 70.2581C222.699 70.2581 219.444 77.7255 215.44 83.2664C211.436 88.8074 200.208 94.3483 200.208 94.3483C200.208 94.3483 199.21 104.702 195.956 108.316C192.702 111.931 185.691 109.766 185.691 109.766C185.691 109.766 182.685 112.898 179.43 114.341C176.176 115.784 166.166 110.488 166.166 110.488C166.166 110.488 175.172 119.882 176.424 123.013C177.676 126.144 179.933 128.792 175.928 131.685C171.924 134.578 167.411 130.48 167.411 130.48C167.411 130.48 169.42 136.743 163.661 137.948C157.903 139.152 151.628 127.104 149.124 123.013C146.62 118.922 139.361 103.497 138.116 102.776C136.871 102.054 135.116 98.2011 137.621 94.5866C140.125 90.9721 157.889 67.8484 159.891 66.2001C161.893 64.5517 200.208 55.8067 200.208 55.8067L214.732 17.265" fill="white"/>
<mask id="mask4_15_511" style="mask-type:luminance" maskUnits="userSpaceOnUse" x="136" y="17" width="125" height="122">
<path d="M260.752 17.5033L222.699 70.2581C222.699 70.2581 219.444 77.7255 215.44 83.2664C211.436 88.8074 200.208 94.3483 200.208 94.3483C200.208 94.3483 199.21 104.702 195.956 108.316C192.702 111.931 185.691 109.766 185.691 109.766C185.691 109.766 182.685 112.898 179.43 114.341C176.176 115.784 166.166 110.488 166.166 110.488C166.166 110.488 175.172 119.882 176.424 123.013C177.676 126.144 179.933 128.792 175.928 131.685C171.924 134.578 167.411 130.48 167.411 130.48C167.411 130.48 169.42 136.743 163.661 137.948C157.903 139.152 151.628 127.104 149.124 123.013C146.62 118.922 139.361 103.497 138.116 102.776C136.871 102.054 135.116 98.2011 137.621 94.5866C140.125 90.9721 157.889 67.8484 159.891 66.2001C161.893 64.5517 200.208 55.8067 200.208 55.8067L214.732 17.265" fill="white"/>
</mask>
<g mask="url(#mask4_15_511)">
<path opacity="0.2" d="M218.784 70.8341C218.784 70.8341 214.656 82.7501 210.184 85.0671C205.712 87.3841 180.256 93.6731 170.28 92.3491C160.304 91.0251 154.8 87.3841 154.8 87.3841C154.8 87.3841 149.296 94.3351 146.888 96.6521C145.211 98.1504 143.216 99.2799 141.04 99.9621C141.04 99.9621 153.011 128.898 161.618 137.855C162.287 138.054 162.997 138.086 163.682 137.948C169.441 136.743 167.432 130.48 167.432 130.48C167.432 130.48 171.938 134.571 175.949 131.685C179.96 128.799 177.697 126.144 176.445 123.013C175.192 119.882 166.152 110.488 166.152 110.488C166.152 110.488 176.162 115.784 179.417 114.341C182.671 112.898 185.677 109.76 185.677 109.76C185.677 109.76 192.688 111.931 195.942 108.316C199.197 104.702 200.194 94.3483 200.194 94.3483C200.194 94.3483 211.457 88.8074 215.468 83.2664C219.479 77.7255 222.726 70.2581 222.726 70.2581L238.406 48.5247L218.784 70.8341Z" fill="black"/>
</g>
<path d="M260.752 17.5033L222.699 70.2581C222.699 70.2581 219.444 77.7255 215.44 83.2664C211.436 88.8074 200.208 94.3483 200.208 94.3483C200.208 94.3483 199.21 104.702 195.956 108.316C192.702 111.931 185.691 109.766 185.691 109.766C185.691 109.766 182.685 112.898 179.43 114.341C176.176 115.784 166.166 110.488 166.166 110.488C166.166 110.488 175.172 119.882 176.424 123.013C177.676 126.144 179.933 128.792 175.928 131.685C171.924 134.578 167.411 130.48 167.411 130.48C167.411 130.48 169.42 136.743 163.661 137.948C157.903 139.152 151.628 127.104 149.124 123.013C146.62 118.922 139.361 103.497 138.116 102.776C136.871 102.054 135.116 98.2011 137.621 94.5866C140.125 90.9721 157.889 67.8484 159.891 66.2001C161.893 64.5517 200.208 55.8067 200.208 55.8067L214.732 17.265" stroke="#263238" stroke-linecap="round" stroke-linejoin="round"/>
<path d="M130.603 158.178L131.601 161.793L147.122 158.178L161.646 121.563L152.131 118.432L130.603 158.178Z" fill="white" stroke="#263238" stroke-linecap="round" stroke-linejoin="round"/>
<path d="M135.357 109.521L156.885 117.234L146.372 162.998L121.088 155.53L135.357 109.521Z" fill="white" stroke="#263238" stroke-linecap="round" stroke-linejoin="round"/>
<path d="M121.934 152.796L144.37 159.145L154.133 118.432L134.476 112.355L121.934 152.796Z" fill="#991F6F" stroke="#263238" stroke-linecap="round" stroke-linejoin="round"/>
<path d="M134.387 122.424C133.411 122.175 132.39 122.13 131.394 122.291L125.532 141.191C126.381 141.987 127.425 142.563 128.567 142.866C133.162 144.084 138.199 140.49 139.808 134.843C141.418 129.196 138.976 123.635 134.387 122.424Z" fill="white" stroke="#263238" stroke-linecap="round" stroke-linejoin="round"/>
<path d="M133.555 125.555C133.525 125.542 133.501 125.52 133.486 125.493C133.471 125.465 133.466 125.433 133.472 125.403L133.733 124.423C133.749 124.382 133.755 124.337 133.751 124.294C133.747 124.25 133.732 124.207 133.708 124.17C133.684 124.132 133.652 124.1 133.613 124.077C133.575 124.053 133.531 124.038 133.486 124.032L132.392 123.781C132.349 123.764 132.303 123.757 132.257 123.761C132.211 123.764 132.166 123.778 132.127 123.802C132.087 123.825 132.054 123.856 132.029 123.894C132.005 123.932 131.99 123.975 131.986 124.019L131.773 125.032C131.765 125.062 131.746 125.089 131.719 125.107C131.693 125.125 131.661 125.134 131.628 125.131C131.255 125.095 130.88 125.095 130.507 125.131L128.505 131.599C130.066 133.161 132.502 133.942 132.179 135.253C131.993 135.995 131.291 136.577 130.06 136.312C129.802 136.279 129.555 136.193 129.335 136.06C129.115 135.927 128.928 135.75 128.786 135.54C128.643 135.331 128.549 135.095 128.51 134.848C128.471 134.601 128.488 134.348 128.56 134.108L128.622 133.843C128.656 133.698 128.567 133.578 128.353 133.532L127.934 133.433L126.743 137.259C127.221 137.677 127.78 138.001 128.388 138.212C128.419 138.225 128.444 138.248 128.459 138.277C128.474 138.307 128.478 138.34 128.47 138.371L128.223 139.212C128.204 139.253 128.195 139.298 128.198 139.343C128.201 139.388 128.216 139.431 128.24 139.47C128.264 139.508 128.298 139.54 128.338 139.563C128.378 139.587 128.424 139.6 128.47 139.603L129.605 139.867C129.645 139.888 129.69 139.899 129.735 139.901C129.78 139.902 129.825 139.893 129.866 139.875C129.907 139.858 129.944 139.831 129.972 139.797C130.001 139.764 130.022 139.724 130.032 139.682L130.218 138.848C130.228 138.817 130.248 138.79 130.275 138.771C130.303 138.752 130.336 138.742 130.369 138.742C132.791 138.987 134.435 137.842 134.944 135.803C135.343 134.174 134.772 132.791 133.004 131.486C131.387 130.308 129.681 129.726 129.977 128.521C130.183 127.687 130.975 127.303 132.041 127.548C132.305 127.588 132.557 127.684 132.778 127.827C133 127.971 133.187 128.158 133.327 128.378C133.466 128.598 133.554 128.844 133.585 129.099C133.616 129.355 133.589 129.613 133.506 129.858L133.458 130.043C133.458 130.156 133.527 130.255 133.74 130.308L135.756 130.772C135.799 130.787 135.845 130.793 135.891 130.788C135.936 130.784 135.98 130.77 136.019 130.747C136.058 130.724 136.091 130.693 136.116 130.656C136.141 130.619 136.157 130.577 136.162 130.533L136.313 129.918C136.774 127.978 135.804 126.329 133.555 125.555Z" fill="#263238"/>
<path d="M153.128 85.4311C153.128 85.4311 156.135 89.7672 156.637 93.6267C157.064 96.9162 156.264 100.245 154.38 103.02C152.881 105.185 151.381 107.112 150.129 110.488C148.876 113.864 148.629 118.677 146.874 121.08C145.12 123.483 144.122 125.893 146.62 128.064C149.117 130.235 155.633 129.99 159.141 123.728C162.65 117.465 164.9 110.72 167.15 108.31C169.399 105.9 176.665 100.366 176.665 100.366C176.665 100.366 196.438 97.7179 200.194 94.3483C203.951 90.9787 207.205 81.8232 207.205 81.8232" fill="white"/>
<mask id="mask5_15_511" style="mask-type:luminance" maskUnits="userSpaceOnUse" x="145" y="81" width="63" height="49">
<path d="M153.128 85.4311C153.128 85.4311 156.135 89.7672 156.637 93.6267C157.064 96.9162 156.264 100.245 154.38 103.02C152.881 105.185 151.381 107.112 150.129 110.488C148.876 113.864 148.629 118.677 146.874 121.08C145.12 123.483 144.122 125.893 146.62 128.064C149.117 130.235 155.633 129.99 159.141 123.728C162.65 117.465 164.9 110.72 167.15 108.31C169.399 105.9 176.665 100.366 176.665 100.366C176.665 100.366 196.438 97.7179 200.194 94.3483C203.951 90.9787 207.205 81.8232 207.205 81.8232" fill="white"/>
</mask>
<g mask="url(#mask5_15_511)">
<path opacity="0.2" d="M205.712 85.067C205.712 85.067 195.048 91.687 186.792 93.673C178.536 95.659 173.376 95.659 170.28 99.631C167.184 103.603 164.088 116.181 159.96 118.498C155.832 120.815 155.144 112.54 149.296 114.195L149.103 114.261C148.532 116.843 148.03 119.491 146.874 121.086C145.12 123.496 144.122 125.899 146.62 128.071C149.117 130.242 155.633 129.997 159.141 123.734C162.65 117.472 164.9 110.726 167.15 108.316C169.399 105.907 176.665 100.372 176.665 100.372C176.665 100.372 196.438 97.7245 200.194 94.3549C202.465 92.3159 204.549 88.1718 205.843 85.206L205.712 85.067Z" fill="black"/>
</g>
<path d="M153.128 85.4311C153.128 85.4311 156.135 89.7672 156.637 93.6267C157.064 96.9162 156.264 100.245 154.38 103.02C152.881 105.185 151.381 107.112 150.129 110.488C148.876 113.864 148.629 118.677 146.874 121.08C145.12 123.483 144.122 125.893 146.62 128.064C149.117 130.235 155.633 129.99 159.141 123.728C162.65 117.465 164.9 110.72 167.15 108.31C169.399 105.9 176.665 100.366 176.665 100.366C176.665 100.366 196.438 97.7179 200.194 94.3483C203.951 90.9787 207.205 81.8232 207.205 81.8232" stroke="#263238" stroke-linecap="round" stroke-linejoin="round"/>
<path d="M145.368 97.4796C145.368 97.4796 151.883 100.849 156.637 96.9963" stroke="#263238" stroke-linecap="round" stroke-linejoin="round"/>
<path d="M167.397 130.48L161.646 119.882" stroke="#263238" stroke-linecap="round" stroke-linejoin="round"/>
<path d="M185.677 109.766C185.677 109.766 190.184 106.152 189.929 98.2012" stroke="#263238" stroke-linecap="round" stroke-linejoin="round"/>
<path d="M48.848 305.976H321.296" stroke="#263238" stroke-linecap="round" stroke-linejoin="round"/>
<path d="M24.768 305.976H37.152" stroke="#263238" stroke-linecap="round" stroke-linejoin="round"/>
</svg>
