<svg width="80" height="211" viewBox="0 0 80 211" fill="none" xmlns="http://www.w3.org/2000/svg">
<path d="M76.9217 210.206L79.0624 210.159C78.2344 183.693 75.6948 157.327 71.4632 131.266C62.2062 75.47 46.8134 38.8258 25.7124 22.3517L24.4832 24.2997C73.7754 62.7826 76.8966 208.735 76.9217 210.206Z" fill="#2F2E41"/>
<path d="M50.1625 209.636L52.3032 209.59C52.2572 206.954 50.9192 144.828 28.9235 127.656L27.6942 129.604C48.8026 146.083 50.152 209.003 50.1625 209.636Z" fill="#2F2E41"/>
<path d="M12.3046 24.5157C18.2161 24.5157 23.0083 19.1872 23.0083 12.614C23.0083 6.04089 18.2161 0.71228 12.3046 0.71228C6.39314 0.71228 1.60095 6.04089 1.60095 12.614C1.60095 19.1872 6.39314 24.5157 12.3046 24.5157Z" fill="#991F6F"/>
<path d="M17.6052 126.87C23.5167 126.87 28.3089 121.542 28.3089 114.969C28.3089 108.396 23.5167 103.067 17.6052 103.067C11.6937 103.067 6.90155 108.396 6.90155 114.969C6.90155 121.542 11.6937 126.87 17.6052 126.87Z" fill="#991F6F"/>
<path d="M55.1517 31.6503C53.1401 45.9372 58.383 58.7155 58.383 58.7155C58.383 58.7155 66.8874 48.3303 68.899 34.0435C70.9106 19.7566 65.6677 6.97827 65.6677 6.97827C65.6677 6.97827 57.1633 17.3635 55.1517 31.6503Z" fill="#2F2E41"/>
<path d="M20.1645 66.3484C32.4662 71.0403 44.696 67.5262 44.696 67.5262C44.696 67.5262 36.9809 56.4051 24.6792 51.7132C12.3776 47.0213 0.147705 50.5354 0.147705 50.5354C0.147705 50.5354 7.86287 61.6565 20.1645 66.3484Z" fill="#2F2E41"/>
<path d="M19.7693 156.993C25.3369 158.938 31.2662 159.222 36.9638 157.819C33.3461 152.697 28.4737 148.848 22.9337 146.735C17.3937 144.622 11.4223 144.335 5.73914 145.91C9.46239 150.906 14.3004 154.728 19.7693 156.993Z" fill="#2F2E41"/>
</svg>
