<svg width="791" height="557" viewBox="0 0 791 557" fill="none" xmlns="http://www.w3.org/2000/svg">
<g clip-path="url(#clip0_110_14)">
<path d="M347.972 184.711L278.963 144.81C278.963 144.81 255.789 116.432 241.235 103.615C226.681 90.7971 222.201 100.213 222.201 100.213L216.083 111.551L230.868 134.417L270.805 172.021L342.166 203.101C343.282 205.133 344.894 206.771 346.814 207.825C348.734 208.879 350.884 209.306 353.013 209.055C355.143 208.805 357.165 207.888 358.844 206.411C360.523 204.934 361.791 202.957 362.501 200.71C363.21 198.464 363.331 196.039 362.851 193.719C362.37 191.399 361.308 189.278 359.786 187.602C358.265 185.927 356.347 184.766 354.256 184.254C352.164 183.742 349.985 183.901 347.972 184.711Z" fill="#9F616A"/>
<path d="M168.472 150.202L164.387 122.409L152.85 119.202C152.85 119.202 143.695 116.066 141.554 136.572C139.414 157.079 141.074 195.366 141.074 195.366L117.651 277.839C115.703 278.847 114.052 280.449 112.891 282.459C111.73 284.47 111.106 286.806 111.093 289.195C111.08 291.584 111.677 293.929 112.816 295.955C113.954 297.981 115.587 299.606 117.524 300.641C119.461 301.675 121.622 302.077 123.756 301.798C125.89 301.52 127.909 300.573 129.578 299.068C131.247 297.563 132.497 295.562 133.183 293.297C133.868 291.033 133.961 288.598 133.451 286.277L164.146 208.193L168.472 150.202Z" fill="#9F616A"/>
<path d="M263.893 540.236L278.989 540.235L286.171 475.491L263.89 475.492L263.893 540.236Z" fill="#9F616A"/>
<path d="M260.042 534.756L289.772 534.755H289.773C294.798 534.755 299.616 536.975 303.169 540.925C306.722 544.876 308.719 550.234 308.719 555.821V556.506L260.043 556.508L260.042 534.756Z" fill="#2F2E41"/>
<path d="M99.24 540.236L114.336 540.235L121.518 475.491L99.2379 475.492L99.24 540.236Z" fill="#9F616A"/>
<path d="M95.3897 534.756L125.119 534.755H125.12C130.145 534.755 134.964 536.975 138.517 540.925C142.07 544.876 144.066 550.234 144.066 555.821V556.506L95.3906 556.508L95.3897 534.756Z" fill="#2F2E41"/>
<path d="M173.766 94.6826L148.728 118.45L169.276 190.756L173.913 206.902C173.913 206.902 145.602 235.927 128.084 317.007C110.567 398.087 81.9106 505.823 81.9106 505.823L142.399 525.077L191.611 341.665L249.495 485.557L256.178 528.117L307.69 511.228L295.539 404.491L234.784 219.727L241.095 170.75C241.095 170.75 250.572 146.303 234.108 120.421L228.944 96.1015L210.445 91.0349L173.766 94.6826Z" fill="#991F6F"/>
<path d="M215.363 81.762H147.668C146.275 81.7603 144.94 81.1444 143.955 80.0496C142.971 78.9547 142.417 77.4702 142.415 75.9218V43.4766C142.415 31.9459 146.535 20.8875 153.867 12.734C161.2 4.58056 171.145 0 181.515 0C191.885 0 201.831 4.58056 209.163 12.734C216.496 20.8875 220.616 31.9459 220.616 43.4766V75.9218C220.614 77.4702 220.06 78.9547 219.076 80.0496C218.091 81.1444 216.756 81.7603 215.363 81.762Z" fill="#2F2E41"/>
<path d="M214.704 64.4205C222.298 48.9735 217.193 29.6059 203.3 21.1618C189.408 12.7177 171.99 18.3947 164.396 33.8417C156.802 49.2887 161.908 68.6563 175.8 77.1004C189.692 85.5446 207.11 79.8676 214.704 64.4205Z" fill="#9F616A"/>
<path d="M229.866 46.7212H188.471L188.047 40.113L185.925 46.7212H179.551L178.71 33.6239L174.503 46.7212H162.17V46.0722C162.179 36.9541 165.441 28.2124 171.239 21.7649C177.038 15.3173 184.899 11.6906 193.1 11.6803H198.936C207.136 11.6906 214.998 15.3173 220.796 21.7648C226.595 28.2123 229.857 36.9541 229.866 46.0722V46.7212Z" fill="#2F2E41"/>
<path d="M188.133 87.8186C187.821 87.8182 187.51 87.7877 187.203 87.7273L156.892 81.7807V26.0789H190.259L189.433 27.1498C177.939 42.0543 186.598 66.2222 192.783 79.3017C193.238 80.2597 193.442 81.3413 193.369 82.422C193.296 83.5028 192.95 84.5387 192.371 85.4106C191.886 86.1561 191.249 86.763 190.513 87.1817C189.776 87.6003 188.96 87.8186 188.133 87.8186Z" fill="#2F2E41"/>
<path d="M438.8 379.838L173.156 484.272C166.588 486.844 159.37 486.415 153.086 483.078C146.803 479.741 141.966 473.769 139.637 466.472L94.0032 322.955C91.6893 315.651 92.0753 307.626 95.0764 300.639C98.0774 293.652 103.449 288.273 110.011 285.684L375.656 181.25C382.224 178.678 389.441 179.107 395.725 182.444C402.009 185.781 406.846 191.753 409.175 199.05L454.809 342.567C457.122 349.871 456.736 357.896 453.735 364.883C450.734 371.87 445.363 377.249 438.8 379.838Z" fill="white"/>
<path d="M271.843 266.48L266.008 251.517L268.017 250.734L273.852 265.697L271.843 266.48ZM277.96 264.094L273.692 253.149L275.25 252.542L277.08 257.236L276.834 257.331C276.413 256.252 276.203 255.287 276.202 254.438C276.209 253.569 276.439 252.826 276.891 252.209C277.338 251.578 278.019 251.084 278.935 250.727L279.017 250.695C280.397 250.157 281.582 250.19 282.574 250.796C283.579 251.395 284.399 252.508 285.033 254.134L287.471 260.386L285.503 261.153L282.906 254.492C282.575 253.645 282.072 253.061 281.397 252.742C280.716 252.41 279.959 252.406 279.125 252.731C278.265 253.066 277.672 253.605 277.347 254.345C277.021 255.086 277.032 255.901 277.378 256.789L279.928 263.327L277.96 264.094ZM291.358 258.87L286.826 247.248C286.352 246.032 286.324 245.012 286.742 244.188C287.161 243.363 287.992 242.709 289.235 242.224L290.465 241.744L291.105 243.384L289.547 243.991C289.041 244.189 288.708 244.484 288.546 244.877C288.38 245.257 288.392 245.693 288.584 246.185L293.244 258.135L291.358 258.87ZM286.149 249.992L285.573 248.516L291.907 246.047L292.482 247.522L286.149 249.992ZM298.88 255.937L294.612 244.991L296.58 244.224L300.848 255.169L298.88 255.937ZM293.621 247.173L293.013 245.615L296.58 244.224L297.187 245.782L293.621 247.173ZM294.478 243.013C294.041 243.183 293.668 243.195 293.359 243.048C293.063 242.896 292.846 242.642 292.707 242.287C292.569 241.931 292.557 241.598 292.671 241.285C292.799 240.968 293.082 240.724 293.519 240.553C293.956 240.383 294.323 240.374 294.618 240.526C294.928 240.673 295.151 240.924 295.29 241.28C295.429 241.635 295.434 241.971 295.306 242.289C295.191 242.601 294.916 242.842 294.478 243.013ZM304.662 253.682L300.394 242.737L301.952 242.129L303.782 246.823L303.536 246.919C303.115 245.84 302.904 244.875 302.904 244.025C302.911 243.156 303.141 242.413 303.593 241.796C304.04 241.166 304.721 240.672 305.636 240.315L305.718 240.283C307.098 239.745 308.284 239.778 309.276 240.383C310.281 240.983 311.101 242.096 311.735 243.722L314.173 249.973L312.205 250.741L309.607 244.079C309.277 243.232 308.774 242.649 308.099 242.33C307.418 241.997 306.661 241.993 305.827 242.318C304.966 242.654 304.373 243.192 304.048 243.933C303.723 244.674 303.734 245.488 304.08 246.376L306.63 252.915L304.662 253.682ZM318.306 248.362L314.038 237.416L316.005 236.649L320.274 247.594L318.306 248.362ZM312.964 239.63L312.357 238.072L316.005 236.649L316.613 238.207L312.964 239.63ZM313.904 235.438C313.466 235.608 313.093 235.62 312.784 235.473C312.488 235.321 312.271 235.067 312.133 234.712C311.994 234.356 311.982 234.023 312.097 233.71C312.225 233.393 312.507 233.149 312.945 232.978C313.382 232.808 313.748 232.799 314.044 232.951C314.353 233.098 314.577 233.349 314.715 233.705C314.854 234.06 314.859 234.396 314.731 234.714C314.617 235.026 314.341 235.267 313.904 235.438ZM328.389 244.571C327.569 244.891 326.814 245.052 326.122 245.054C325.444 245.051 324.831 244.833 324.285 244.401C323.747 243.949 323.289 243.239 322.91 242.269L318.802 231.733L320.688 230.998L324.892 241.779C325.121 242.367 325.457 242.763 325.899 242.969C326.349 243.155 326.868 243.134 327.456 242.905L329.383 242.153L330.07 243.916L328.389 244.571ZM318.787 237.265L318.211 235.789L325.754 232.848L326.329 234.323L318.787 237.265ZM333.73 247.259L333.042 245.496L334.621 244.881C335.085 244.699 335.451 244.486 335.717 244.241C336.002 244.003 336.194 243.708 336.293 243.355C336.405 242.996 336.441 242.565 336.402 242.061L335.321 229.117L337.248 228.366L338.323 241.902C338.387 242.711 338.309 243.419 338.088 244.024C337.873 244.643 337.519 245.167 337.025 245.596C336.55 246.033 335.937 246.398 335.185 246.691L333.73 247.259ZM335.312 241.447L334.673 239.807L337.051 238.88L337.69 240.52L335.312 241.447ZM335.107 241.527L327.02 232.354L329.029 231.571L336.952 240.807L335.107 241.527ZM345.932 237.683L345.245 235.921L349.426 234.29C350.232 233.976 350.766 233.508 351.027 232.886C351.297 232.246 351.283 231.543 350.984 230.778C350.681 229.999 350.225 229.476 349.617 229.209C349.004 228.929 348.288 228.949 347.468 229.268L343.286 230.899L342.775 229.587L346.669 228.069C347.626 227.696 348.511 227.484 349.326 227.434C350.155 227.378 350.88 227.544 351.504 227.931C352.135 228.299 352.632 228.947 352.994 229.876L353.106 230.163C353.447 231.038 353.56 231.852 353.444 232.605C353.324 233.345 352.965 234.02 352.369 234.63C351.767 235.227 350.92 235.738 349.826 236.165L345.932 237.683ZM344.333 238.307L338.435 223.18L340.443 222.397L346.342 237.523L344.333 238.307ZM343.143 230.53L342.631 229.218L346.259 227.803C347.106 227.473 347.64 227.005 347.86 226.4C348.089 225.775 348.065 225.108 347.788 224.397C347.505 223.673 347.071 223.165 346.486 222.874C345.908 222.564 345.196 222.574 344.349 222.905L340.721 224.319L340.033 222.557L343.313 221.278C344.953 220.638 346.311 220.51 347.389 220.893C348.462 221.261 349.251 222.095 349.758 223.393L349.87 223.68C350.227 224.595 350.307 225.406 350.11 226.113C349.908 226.806 349.483 227.412 348.836 227.932C348.197 228.433 347.392 228.873 346.422 229.251L343.143 230.53ZM364.566 230.322L363.287 227.043L362.959 227.171L361.481 223.379C361.188 222.627 360.768 222.138 360.223 221.91C359.691 221.676 359.049 221.706 358.298 221.999C357.874 222.164 357.44 222.342 356.994 222.531C356.548 222.721 356.123 222.902 355.719 223.076C355.314 223.249 354.967 223.408 354.677 223.553L354.006 221.831C354.296 221.686 354.602 221.543 354.924 221.402C355.255 221.241 355.598 221.092 355.954 220.953C356.304 220.801 356.643 220.661 356.971 220.533C358.091 220.096 359.06 219.876 359.877 219.872C360.689 219.855 361.383 220.08 361.959 220.548C362.535 221.016 363.023 221.762 363.422 222.787L366.124 229.715L364.566 230.322ZM361.091 232.008C360.271 232.328 359.507 232.468 358.8 232.429C358.1 232.372 357.483 232.14 356.947 231.735C356.425 231.325 356.017 230.744 355.724 229.992C355.42 229.213 355.338 228.498 355.477 227.845C355.63 227.188 355.99 226.598 356.559 226.078C357.122 225.543 357.875 225.092 358.818 224.724L361.79 223.566L362.365 225.041L359.311 226.232C358.519 226.541 357.985 226.97 357.711 227.517C357.436 228.065 357.416 228.64 357.651 229.241C357.885 229.842 358.286 230.245 358.854 230.448C359.421 230.652 360.101 230.6 360.894 230.291C361.358 230.109 361.77 229.854 362.13 229.525C362.484 229.182 362.721 228.759 362.84 228.257C362.967 227.735 362.905 227.113 362.656 226.392L363.492 226.963C363.728 227.769 363.792 228.499 363.686 229.155C363.588 229.791 363.318 230.352 362.878 230.839C362.452 231.32 361.856 231.71 361.091 232.008ZM369.735 228.307L365.467 217.361L367.025 216.754L368.855 221.448L368.609 221.544C368.188 220.464 367.978 219.5 367.977 218.65C367.984 217.781 368.214 217.038 368.666 216.421C369.113 215.79 369.794 215.296 370.709 214.939L370.791 214.907C372.172 214.369 373.357 214.403 374.349 215.008C375.354 215.608 376.174 216.721 376.808 218.347L379.246 224.598L377.278 225.365L374.681 218.704C374.35 217.857 373.847 217.274 373.172 216.955C372.491 216.622 371.734 216.618 370.9 216.943C370.04 217.279 369.447 217.817 369.121 218.558C368.796 219.298 368.807 220.113 369.153 221.001L371.703 227.539L369.735 228.307ZM390.389 220.253L384.279 216.756L382.475 217.459L385.219 209.659L387.289 208.852L384.793 215.894L384.529 214.793L392.664 219.366L390.389 220.253ZM382.846 223.194L377.011 208.232L378.979 207.464L384.814 222.427L382.846 223.194Z" fill="#3F3D56"/>
<path d="M454.809 342.567L455.05 343.327C457.266 350.301 456.901 357.969 454.033 364.644C451.165 371.318 446.03 376.453 439.757 378.917L172.784 483.873C166.513 486.338 159.619 485.932 153.617 482.744C147.615 479.557 142.997 473.85 140.779 466.877L140.538 466.118L454.809 342.567Z" fill="#F2F2F2"/>
<path d="M156.578 319.006C138.97 331.889 116.403 322.193 108.51 308.071L109.769 307.276C124.759 296.886 147.021 302.675 156.578 319.006Z" fill="#991F6F"/>
<path d="M377.235 355.557C372.925 357.252 369.044 357.174 365.7 355.326C358.14 351.15 354.593 338.766 351.742 328.815C350.913 325.92 350.13 323.186 349.332 320.951L349.321 320.917C347.933 316.483 348.174 311.62 349.993 307.383C351.811 303.146 355.06 299.879 359.033 298.29L394.764 284.242C399.068 282.55 402.945 282.627 406.287 284.472C413.844 288.643 417.395 301.023 420.248 310.97C421.08 313.871 421.865 316.611 422.666 318.849C424.061 323.287 423.824 328.158 422.006 332.403C420.188 336.647 416.936 339.922 412.957 341.514L377.235 355.557ZM350.818 320.315C351.633 322.604 352.423 325.36 353.259 328.278C356.018 337.91 359.452 349.898 366.408 353.741C369.393 355.39 372.761 355.439 376.704 353.889L412.425 339.846C416.003 338.415 418.929 335.473 420.567 331.657C422.206 327.842 422.424 323.462 421.175 319.469C420.365 317.207 419.571 314.439 418.731 311.508C415.969 301.879 412.533 289.895 405.579 286.057C402.596 284.411 399.232 284.363 395.295 285.911L359.565 299.958C355.991 301.388 353.068 304.327 351.431 308.138C349.793 311.949 349.573 316.324 350.818 320.315Z" fill="#3F3D56"/>
<path d="M149.172 323.645C142.894 326.066 136.13 326.479 129.65 324.838C120.188 322.528 111.6 316.245 107.239 308.444L106.802 307.662L108.766 306.421C123.982 295.882 146.799 301.595 156.647 318.42L157.079 319.158L156.418 319.642C154.157 321.298 151.724 322.642 149.172 323.645ZM109.041 308.283C113.309 315.334 121.251 320.975 129.992 323.109C138.489 325.316 147.425 323.712 154.866 318.646C145.232 303.151 123.888 298.011 109.594 307.932L109.041 308.283Z" fill="#3F3D56"/>
<path d="M158.505 426.652C156.274 427.634 153.845 427.922 151.479 427.485C149.112 427.048 146.897 425.903 145.071 424.172C142.934 422.095 141.314 419.442 140.368 416.467C139.421 413.492 139.179 410.296 139.665 407.187C140.117 404.512 141.226 402.028 142.87 400.011C144.513 397.994 146.627 396.522 148.976 395.758L196.585 377.041C198.844 376 201.318 375.673 203.734 376.096C206.151 376.518 208.415 377.675 210.277 379.437C212.413 381.514 214.032 384.168 214.977 387.143C215.923 390.118 216.164 393.314 215.676 396.422C214.736 401.885 211.419 405.909 206.364 407.835L158.754 426.552C158.671 426.586 158.588 426.619 158.505 426.652ZM149.272 397.517C147.241 398.214 145.419 399.514 144.002 401.276C142.584 403.038 141.626 405.196 141.229 407.519C140.791 410.32 141.009 413.199 141.862 415.879C142.715 418.559 144.174 420.949 146.099 422.82C147.75 424.375 149.755 425.391 151.893 425.756C154.031 426.121 156.218 425.82 158.212 424.888L205.844 406.162C207.924 405.495 209.798 404.201 211.257 402.423C212.716 400.645 213.705 398.453 214.113 396.089C214.552 393.289 214.335 390.41 213.483 387.73C212.631 385.05 211.173 382.659 209.248 380.788C207.596 379.234 205.589 378.218 203.451 377.851C201.312 377.483 199.123 377.779 197.126 378.706L149.491 397.433C149.418 397.46 149.345 397.488 149.272 397.517Z" fill="#3F3D56"/>
<path d="M377.553 313.331L362.545 319.231C361.55 319.623 360.456 319.558 359.503 319.053C358.551 318.547 357.818 317.641 357.467 316.534C357.115 315.428 357.173 314.211 357.627 313.152C358.082 312.093 358.897 311.279 359.892 310.887L374.9 304.987C375.895 304.596 376.989 304.66 377.942 305.166C378.894 305.672 379.627 306.578 379.979 307.684C380.331 308.791 380.273 310.007 379.818 311.066C379.363 312.125 378.548 312.94 377.553 313.331Z" fill="#991F6F"/>
<path d="M381.798 326.682L366.79 332.582C365.795 332.973 364.701 332.909 363.748 332.403C362.796 331.897 362.063 330.991 361.712 329.885C361.36 328.778 361.418 327.562 361.872 326.503C362.327 325.444 363.142 324.629 364.137 324.238L379.145 318.338C380.14 317.946 381.234 318.011 382.187 318.517C383.139 319.022 383.872 319.928 384.224 321.035C384.576 322.141 384.518 323.358 384.063 324.417C383.608 325.476 382.793 326.29 381.798 326.682Z" fill="#991F6F"/>
<path d="M386.043 340.032L371.035 345.932C370.542 346.126 370.02 346.21 369.498 346.179C368.976 346.149 368.465 346.004 367.993 345.753C367.522 345.503 367.099 345.152 366.75 344.72C366.4 344.288 366.131 343.783 365.956 343.235C365.782 342.687 365.707 342.107 365.734 341.527C365.762 340.946 365.892 340.378 366.117 339.853C366.343 339.329 366.659 338.859 367.047 338.47C367.436 338.082 367.889 337.782 368.382 337.588L383.39 331.688C383.883 331.494 384.405 331.411 384.927 331.441C385.449 331.472 385.96 331.617 386.432 331.867C386.903 332.118 387.326 332.469 387.675 332.901C388.025 333.333 388.295 333.837 388.469 334.385C388.643 334.933 388.718 335.514 388.691 336.094C388.663 336.674 388.533 337.243 388.308 337.767C388.083 338.292 387.767 338.761 387.378 339.15C386.99 339.539 386.536 339.838 386.043 340.032Z" fill="#991F6F"/>
<path d="M403.818 303.006L388.809 308.906C388.317 309.1 387.794 309.184 387.273 309.153C386.751 309.122 386.239 308.977 385.768 308.727C385.296 308.477 384.874 308.125 384.524 307.693C384.175 307.261 383.905 306.757 383.731 306.209C383.557 305.661 383.481 305.08 383.509 304.5C383.536 303.92 383.666 303.351 383.892 302.827C384.117 302.303 384.433 301.833 384.821 301.444C385.21 301.055 385.664 300.756 386.156 300.562L401.164 294.662C402.16 294.271 403.254 294.335 404.206 294.841C405.158 295.346 405.891 296.252 406.243 297.359C406.595 298.465 406.537 299.682 406.082 300.741C405.627 301.8 404.813 302.615 403.818 303.006Z" fill="#991F6F"/>
<path d="M408.063 316.356L393.054 322.257C392.562 322.45 392.039 322.534 391.518 322.503C390.996 322.473 390.484 322.328 390.013 322.078C389.541 321.827 389.119 321.476 388.769 321.044C388.42 320.612 388.15 320.107 387.976 319.56C387.802 319.012 387.726 318.431 387.754 317.851C387.781 317.27 387.911 316.702 388.137 316.178C388.362 315.653 388.678 315.183 389.066 314.795C389.455 314.406 389.908 314.106 390.401 313.913L405.409 308.012C405.902 307.819 406.424 307.735 406.946 307.765C407.468 307.796 407.979 307.941 408.451 308.191C408.923 308.442 409.345 308.793 409.695 309.225C410.044 309.657 410.314 310.161 410.488 310.709C410.662 311.257 410.738 311.838 410.71 312.418C410.682 312.998 410.552 313.567 410.327 314.091C410.102 314.616 409.786 315.086 409.397 315.474C409.009 315.863 408.555 316.163 408.063 316.356Z" fill="#991F6F"/>
<path d="M412.308 329.707L397.299 335.607C396.304 335.998 395.21 335.934 394.258 335.428C393.305 334.922 392.573 334.016 392.221 332.91C391.869 331.803 391.927 330.587 392.382 329.528C392.837 328.469 393.651 327.654 394.646 327.263L409.654 321.363C410.147 321.169 410.669 321.085 411.191 321.116C411.713 321.147 412.224 321.291 412.696 321.542C413.168 321.792 413.59 322.143 413.94 322.575C414.289 323.007 414.559 323.512 414.733 324.06C414.907 324.608 414.983 325.188 414.955 325.768C414.928 326.349 414.797 326.917 414.572 327.442C414.347 327.966 414.031 328.436 413.642 328.825C413.254 329.213 412.8 329.513 412.308 329.707Z" fill="#991F6F"/>
<path d="M419.111 230.291L104.839 353.842L105.37 355.511L419.642 231.96L419.111 230.291Z" fill="#3F3D56"/>
<path d="M438.8 379.838L173.156 484.272C166.588 486.844 159.37 486.415 153.086 483.078C146.803 479.741 141.966 473.769 139.637 466.472L94.0032 322.955C91.6893 315.651 92.0753 307.626 95.0764 300.639C98.0774 293.652 103.449 288.273 110.011 285.684L375.656 181.25C382.224 178.678 389.441 179.107 395.725 182.444C402.009 185.781 406.846 191.753 409.175 199.05L454.809 342.567C457.122 349.871 456.736 357.896 453.735 364.883C450.734 371.87 445.363 377.249 438.8 379.838ZM110.542 287.353C104.377 289.785 99.3314 294.838 96.5122 301.401C93.693 307.965 93.3304 315.504 95.504 322.365L141.138 465.882C143.326 472.737 147.869 478.347 153.772 481.482C159.675 484.616 166.455 485.02 172.625 482.603L438.27 378.169C444.435 375.737 449.48 370.684 452.3 364.121C455.119 357.557 455.481 350.018 453.308 343.157L407.674 199.64C405.486 192.785 400.942 187.175 395.039 184.04C389.137 180.906 382.356 180.502 376.186 182.919L110.542 287.353Z" fill="#3F3D56"/>
<path d="M690.065 557H0.935047C0.687057 557 0.449224 556.875 0.273868 556.651C0.0985129 556.428 0 556.125 0 555.81C0 555.494 0.0985129 555.191 0.273868 554.968C0.449224 554.745 0.687057 554.62 0.935047 554.62H690.065C690.313 554.62 690.551 554.745 690.726 554.968C690.901 555.191 691 555.494 691 555.81C691 556.125 690.901 556.428 690.726 556.651C690.551 556.875 690.313 557 690.065 557Z" fill="#CBCBCB" fill-opacity="0.79"/>
</g>
<defs>
<clipPath id="clip0_110_14">
<rect width="791" height="557" fill="white"/>
</clipPath>
</defs>
</svg>
