<svg width="354" height="346" viewBox="0 0 354 346" fill="none" xmlns="http://www.w3.org/2000/svg">
<path d="M28.1698 171.057L28.2722 173.351L28.2723 173.353C28.6139 180.456 30.3985 187.266 32.7675 193.7L32.7732 193.716L32.7798 193.731C34.7574 198.265 37.623 202.235 40.7337 205.908C56.2711 224.504 77.9456 231.099 99.3709 220.431C103.205 218.716 107.639 216.432 111.518 214.224L111.524 214.221C116.01 211.582 120.531 208.006 124.884 204.564C125.425 204.136 125.965 203.71 126.501 203.287L126.501 203.287L126.511 203.279C137.691 193.953 148.527 181.997 159.054 170.381C163.482 165.495 167.856 160.669 172.178 156.124L172.183 156.118C174.709 153.375 176.909 150.832 179.136 148.254L179.298 148.067C181.472 145.55 183.679 142.995 186.254 140.173C190.829 135.474 194.751 132.037 199.125 128.205C200.185 127.276 201.271 126.325 202.4 125.326C213.733 115.524 226.374 106.357 240.496 102.423C269.467 94.7401 301.16 107.024 318.346 133.605C326.906 146.997 330.935 163.919 330.42 180.891L330.419 180.896C329.641 215.885 305.05 243.489 275.766 248.651L275.766 248.651L275.757 248.653C248.208 254.123 225.364 233.685 207.054 213.557L207.361 213.11C217.059 221.828 226.925 230.586 238.124 236.667C255.385 246.616 275.524 246.152 292.886 234.875C311.943 223.444 321.343 202.527 321.793 181.38C322.243 160.238 313.747 138.8 296.939 126.344C281.393 114.776 261.451 109.71 242.89 115.236L242.887 115.237C230.453 119.025 219.406 127.196 209.226 136.137L209.223 136.14C208.39 136.885 207.551 137.632 206.709 138.381C202.452 142.166 198.113 146.024 194.159 150.161L194.154 150.166L194.149 150.171C191.971 152.597 189.821 155.122 187.671 157.647L187.282 158.104C185.001 160.782 182.718 163.453 180.392 166.01C177.069 169.595 173.76 173.244 170.441 176.904C150.158 199.272 129.505 222.049 102.999 233.013L102.99 233.017L102.98 233.022C84.7911 241.571 63.6941 240.037 47.6955 227.954L47.6956 227.954L47.6881 227.948C30.8231 215.673 19.8678 198.045 19.4035 174.175C19.1 151.735 31.7229 130.478 47.5097 117.567C58.421 109.496 72.0674 105.543 84.9676 105.821L84.9679 105.821C106.727 106.271 126.006 119.5 141.838 135.371C141.836 135.374 141.834 135.377 141.832 135.379C141.779 135.45 141.723 135.525 141.667 135.6L141.531 135.783C141.528 135.786 141.526 135.789 141.524 135.792C128.316 124.425 113.465 115.565 98.0466 112.478C82.4625 109.357 66.3295 112.141 50.7808 124.133L50.7697 124.141L50.7592 124.151C45.2733 128.951 39.6296 136.198 35.3529 144.471C31.0774 152.742 28.1478 162.077 28.1359 171.054L28.1698 171.057ZM142.091 135.029L142.093 135.026C142.094 135.025 142.094 135.025 142.091 135.029Z" fill="#E0E0E0" stroke="#BAB7B7"/>
</svg>
