<svg width="75" height="37" viewBox="0 0 75 37" fill="none" xmlns="http://www.w3.org/2000/svg">
<path d="M29.4379 10.443C23.1543 5.23593 15.3922 2.41284 8.34011 8.05723C5.86333 10.3056 3.27864 14.8164 3.36609 18.9204C3.36877 18.7659 3.36589 18.8527 3.3693 18.844L3.37292 18.903L3.40955 19.4455C3.52489 21.0708 3.97067 22.6259 4.55173 24.0973C5.0274 25.122 5.70496 26.0181 6.44307 26.8506C10.1183 31.0526 15.1351 32.4705 20.0102 29.9342C20.8889 29.5226 21.905 28.9765 22.793 28.4501C23.9422 27.7465 25.0959 26.77 26.204 25.8643C29.8191 22.7357 33.2393 18.389 36.5582 14.7659C37.7007 13.4775 38.5458 12.3794 39.7447 11.015C41.0388 9.63537 42.1096 8.71128 43.4254 7.50338C46.0102 5.18391 48.9133 2.99591 52.1966 2.01903C58.9298 0.106157 66.4097 2.83114 70.5731 8.95711C72.6491 12.0459 73.6793 15.9724 73.6483 19.9242C73.6508 28.0831 68.0442 34.6193 61.2198 35.947C54.7487 37.3509 49.2675 32.6083 44.8984 28.0059L45.0864 27.7199C47.4181 29.7252 49.7739 31.7373 52.4301 33.1088C56.4548 35.3183 61.0904 35.13 65.0355 32.4659C73.7007 27.0589 73.2745 13.0978 65.4127 7.53048C61.7659 4.93671 57.1416 3.85838 52.8938 5.20442C50.0462 6.12686 47.5357 8.05217 45.2201 10.1622C44.071 11.2292 42.8705 12.3021 41.7996 13.465C40.7557 14.6724 39.7426 15.9833 38.6858 17.1896C33.3383 23.1789 28.1451 29.956 21.0195 33.0508C16.8084 35.1211 11.8559 34.8566 8.03697 32.0998C4.02598 29.3102 1.3635 25.2407 1.12883 19.6723C0.939005 14.4324 3.78436 9.42743 7.40304 6.3577C9.91518 4.42804 13.0881 3.44848 16.1092 3.45823C21.2451 3.47078 25.85 6.51789 29.6353 10.1668C29.6336 10.1711 29.4379 10.443 29.4379 10.443Z" fill="#991F6F" stroke="#AD1679"/>
</svg>
