<svg width="275" height="276" viewBox="0 0 275 276" fill="none" xmlns="http://www.w3.org/2000/svg">
<g clip-path="url(#clip0_15_8)">
<path d="M247.65 267.389C248.691 267.457 249.267 266.104 248.479 265.315L248.401 264.989C248.411 264.963 248.421 264.937 248.432 264.911C249.485 262.285 253.054 262.303 254.098 264.933C255.025 267.268 256.205 269.606 256.495 272.075C256.626 273.164 256.567 274.274 256.336 275.344C258.507 270.382 259.65 264.965 259.65 259.516C259.65 258.147 259.578 256.778 259.432 255.413C259.312 254.296 259.146 253.186 258.931 252.086C257.768 246.14 255.252 240.477 251.622 235.748C249.877 234.75 248.421 233.19 247.542 231.321C247.226 230.647 246.979 229.921 246.862 229.182C247.06 229.21 247.611 226.046 247.461 225.852C247.738 225.413 248.233 225.194 248.535 224.766C250.038 222.634 252.11 223.006 253.191 225.903C255.501 227.122 255.523 229.144 254.106 231.089C253.204 232.327 253.08 234.001 252.289 235.325C252.37 235.434 252.455 235.54 252.536 235.649C254.029 237.651 255.32 239.803 256.408 242.064C256.101 239.552 256.555 236.524 257.329 234.573C258.21 232.349 259.862 230.477 261.316 228.555C263.063 226.246 266.646 227.253 266.954 230.18C266.957 230.209 266.96 230.237 266.962 230.265C266.746 230.393 266.535 230.528 266.328 230.671C265.149 231.487 265.556 233.399 266.954 233.624L266.985 233.63C266.907 234.443 266.774 235.25 266.578 236.044C268.444 243.591 264.416 246.34 258.664 246.464C258.537 246.532 258.413 246.6 258.286 246.665C258.869 248.381 259.334 250.142 259.679 251.926C259.989 253.503 260.204 255.096 260.324 256.697C260.474 258.716 260.461 260.745 260.298 262.761L260.308 262.69C260.721 260.47 261.874 258.396 263.547 256.959C266.04 254.817 269.562 254.028 272.252 252.307C273.546 251.478 275.205 252.549 274.979 254.119L274.968 254.194C274.568 254.364 274.177 254.562 273.799 254.783C273.583 254.91 273.372 255.046 273.165 255.189C271.986 256.005 272.393 257.917 273.791 258.142L273.822 258.147C273.845 258.151 273.865 258.154 273.887 258.158C273.2 259.864 272.243 261.447 271.045 262.812C269.878 269.401 264.867 270.026 259.507 268.108H259.504C258.918 270.777 258.061 273.386 256.961 275.872H247.878C247.845 275.766 247.816 275.657 247.786 275.551C248.626 275.606 249.473 275.555 250.3 275.395C249.626 274.53 248.952 273.658 248.278 272.793C248.262 272.776 248.249 272.759 248.236 272.742C247.894 272.299 247.549 271.86 247.207 271.418L247.207 271.417C247.185 270.058 247.341 268.703 247.65 267.389Z" fill="#F2F2F2"/>
<path d="M80.5261 275.373C80.5261 275.721 80.7932 276 81.1259 276H274.329C274.662 276 274.929 275.721 274.929 275.373C274.929 275.025 274.662 274.745 274.329 274.745H81.1259C80.7932 274.745 80.5261 275.025 80.5261 275.373Z" fill="#CCCCCC"/>
<path d="M109.843 275.733H20.9131C10.0697 275.733 1.24783 266.506 1.24783 255.164V55.2689C1.24783 43.9274 10.0697 34.7003 20.9131 34.7003H109.843C120.686 34.7003 129.508 43.9274 129.508 55.2689V255.164C129.508 266.506 120.686 275.733 109.843 275.733Z" fill="#3F3D56"/>
<path d="M129.508 108.228C129.049 108.228 128.676 108.619 128.676 109.098V136.943C128.676 137.423 129.049 137.813 129.508 137.813C129.967 137.813 130.34 137.423 130.34 136.943V109.098C130.34 108.619 129.967 108.228 129.508 108.228Z" fill="#3F3D56"/>
<path d="M127.636 55.269V255.16C127.636 265.032 120.29 273.107 111.002 273.734H110.998C110.86 273.743 110.723 273.751 110.582 273.756C110.336 273.769 110.091 273.773 109.841 273.773C109.841 273.773 108.926 273.703 107.254 273.573C105.565 273.442 103.107 273.247 100.041 272.99C99.1217 272.916 98.1524 272.833 97.1292 272.746C95.0909 272.572 92.853 272.381 90.4529 272.163C89.4961 272.081 88.5061 271.989 87.4953 271.898C82.329 271.432 76.5428 270.888 70.4406 270.271C69.409 270.171 68.3691 270.066 67.3208 269.957C67.0463 269.927 66.7676 269.901 66.4889 269.87C62.1378 269.422 3.11987 257.493 3.11987 255.16V55.269C3.11987 44.9882 11.0857 36.6565 20.915 36.6565H31.5389C33.236 36.6565 34.6004 38.04 34.746 39.8108C34.7585 39.9283 34.771 40.0457 34.7918 40.1632C35.0996 41.9427 36.6595 43.1826 38.3899 43.1826H92.3663C94.0967 43.1826 95.6566 41.9427 95.9644 40.1632C95.9852 40.0457 95.9977 39.9283 96.0102 39.8108C96.1558 38.04 97.5202 36.6565 99.2173 36.6565H109.841C119.671 36.6565 127.636 44.9882 127.636 55.269Z" fill="white"/>
<path d="M0.831936 87.3446C0.37311 87.3446 0 87.7349 0 88.2148V95.176C0 95.6559 0.373115 96.0461 0.831936 96.0461C1.29076 96.0461 1.66387 95.6559 1.66387 95.176V88.2148C1.66387 87.7349 1.29076 87.3446 0.831936 87.3446Z" fill="#3F3D56"/>
<path d="M0.831936 108.228C0.37311 108.228 0 108.619 0 109.098V122.586C0 123.066 0.373115 123.456 0.831936 123.456C1.29076 123.456 1.66387 123.066 1.66387 122.586V109.098C1.66387 108.619 1.29076 108.228 0.831936 108.228Z" fill="#3F3D56"/>
<path d="M0.831936 127.372C0.37311 127.372 0 127.762 0 128.242V141.729C0 142.209 0.373115 142.599 0.831936 142.599C1.29076 142.599 1.66387 142.209 1.66387 141.729V128.242C1.66387 127.762 1.29076 127.372 0.831936 127.372Z" fill="#3F3D56"/>
<path d="M31.2493 39.7037H15.3392C15.2529 39.7037 15.1829 39.777 15.1829 39.8673V41.7156C15.1829 41.8059 15.2529 41.8791 15.3392 41.8791H31.2493C31.3356 41.8791 31.4057 41.8059 31.4057 41.7156V39.8673C31.4057 39.777 31.3356 39.7037 31.2493 39.7037Z" fill="#E6E6E6"/>
<path d="M101.846 41.8792C102.765 41.8792 103.51 41.1 103.51 40.1389C103.51 39.1777 102.765 38.3986 101.846 38.3986C100.927 38.3986 100.182 39.1777 100.182 40.1389C100.182 41.1 100.927 41.8792 101.846 41.8792Z" fill="#E6E6E6"/>
<path d="M106.422 41.8792C107.341 41.8792 108.086 41.1 108.086 40.1389C108.086 39.1777 107.341 38.3986 106.422 38.3986C105.503 38.3986 104.758 39.1777 104.758 40.1389C104.758 41.1 105.503 41.8792 106.422 41.8792Z" fill="#E6E6E6"/>
<path d="M110.997 41.8792C111.916 41.8792 112.661 41.1 112.661 40.1389C112.661 39.1777 111.916 38.3986 110.997 38.3986C110.079 38.3986 109.334 39.1777 109.334 40.1389C109.334 41.1 110.079 41.8792 110.997 41.8792Z" fill="#E6E6E6"/>
<path d="M100.455 157.384H29.8854C28.7736 157.384 27.8691 156.437 27.8691 155.275C27.8691 154.112 28.7736 153.166 29.8854 153.166H100.455C101.566 153.166 102.471 154.112 102.471 155.275C102.471 156.437 101.566 157.384 100.455 157.384Z" fill="#E6E6E6"/>
<path d="M65.4231 239.103C81.5696 239.103 94.659 225.412 94.659 208.524C94.659 191.636 81.5696 177.945 65.4231 177.945C49.2766 177.945 36.1873 191.636 36.1873 208.524C36.1873 225.412 49.2766 239.103 65.4231 239.103Z" fill="#991F6F"/>
<path d="M70.0695 198.54C67.6022 198.646 64.8129 198.823 62.9892 200.803C61.4048 202.523 61.0576 205.076 62.6643 206.913C64.2752 208.754 66.7797 209.004 68.6366 210.44C70.817 212.127 70.4976 215.464 68.3877 217.063C65.8996 218.948 62.6871 218.069 60.4125 216.275C59.8296 215.816 59.2638 216.845 59.8401 217.3C61.878 218.907 64.5373 219.801 67.057 219.032C69.3311 218.338 71.0939 216.399 71.2732 213.876C71.3588 212.672 71.0315 211.45 70.3157 210.5C69.5601 209.496 68.4718 208.879 67.3716 208.377C65.4777 207.512 62.2166 206.393 62.7673 203.577C63.4347 200.164 67.4066 199.84 70.0696 199.726C70.7968 199.695 70.8006 198.508 70.0695 198.54Z" fill="white"/>
<path d="M65.4923 196.925L65.3836 222.966C65.3804 223.73 66.5145 223.731 66.5177 222.966L66.6264 196.925C66.6296 196.162 65.4955 196.161 65.4923 196.925Z" fill="white"/>
<path d="M220.32 0H76.1774C70.8897 0 66.59 4.49717 66.59 10.0277V113.342C66.59 118.872 70.8897 123.369 76.1774 123.369H220.32C225.608 123.369 229.907 118.872 229.907 113.342V10.0277C229.907 4.49717 225.608 0 220.32 0Z" fill="white"/>
<path d="M147.586 61.4295C156.494 61.4295 163.716 53.876 163.716 44.5584C163.716 35.2408 156.494 27.6874 147.586 27.6874C138.678 27.6874 131.456 35.2408 131.456 44.5584C131.456 53.876 138.678 61.4295 147.586 61.4295Z" fill="#991F6F"/>
<path d="M150.646 37.0297C148.649 37.1158 146.401 37.2482 144.891 38.8023C143.64 40.0897 143.202 42.0938 144.352 43.6095C145.563 45.2054 147.576 45.5083 149.156 46.5281C150.138 47.1619 150.788 48.1222 150.81 49.3563C150.829 50.5116 150.32 51.591 149.467 52.3151C147.376 54.0917 144.525 53.3563 142.547 51.8026C142.158 51.4969 141.78 52.1831 142.165 52.4854C143.804 53.7722 145.913 54.5196 147.951 53.9659C149.828 53.4563 151.339 51.9124 151.543 49.8493C151.757 47.6749 150.392 46.1944 148.622 45.345C147.004 44.5686 144.166 43.7414 144.434 41.3295C144.774 38.2628 148.363 37.9189 150.646 37.8205C151.131 37.7996 151.133 37.0087 150.646 37.0297Z" fill="white"/>
<path d="M147.176 35.5957L147.085 57.2951C147.083 57.8041 147.839 57.8047 147.841 57.2951L147.932 35.5957C147.934 35.0868 147.178 35.0861 147.176 35.5957Z" fill="white"/>
<path d="M220.32 0H76.1774C70.8897 0 66.59 4.49717 66.59 10.0277V113.342C66.59 118.872 70.8897 123.369 76.1774 123.369H220.32C225.608 123.369 229.907 118.872 229.907 113.342V10.0277C229.907 4.49717 225.608 0 220.32 0ZM228.899 113.342C228.899 118.292 225.053 122.315 220.32 122.315H76.1774C71.4442 122.315 67.5982 118.292 67.5982 113.342V10.0277C67.5982 5.07714 71.4442 1.05444 76.1774 1.05444H220.32C225.053 1.05444 228.899 5.07713 228.899 10.0277V113.342Z" fill="#3F3D56"/>
<path d="M131.63 10.2017H117.486C116.775 10.2017 116.195 10.808 116.195 11.5513C116.195 12.3 116.775 12.9063 117.486 12.9063H131.63C132.34 12.9063 132.92 12.3 132.92 11.5513C132.92 10.808 132.34 10.2017 131.63 10.2017Z" fill="#E6E6E6"/>
<path d="M155.321 10.2017H141.177C140.466 10.2017 139.886 10.808 139.886 11.5513C139.886 12.3 140.466 12.9063 141.177 12.9063H155.321C156.031 12.9063 156.611 12.3 156.611 11.5513C156.611 10.808 156.032 10.2017 155.321 10.2017Z" fill="#E6E6E6"/>
<path d="M179.012 10.2017H164.868C164.157 10.2017 163.577 10.808 163.577 11.5513C163.577 12.3 164.157 12.9063 164.868 12.9063H179.012C179.723 12.9063 180.302 12.3 180.302 11.5513C180.302 10.808 179.723 10.2017 179.012 10.2017Z" fill="#E6E6E6"/>
<path d="M202.34 70.9194H94.1574C89.6561 70.9194 85.9966 74.7471 85.9966 79.4551V87.1631C85.9966 91.8712 89.6561 95.6988 94.1574 95.6988H202.34C206.841 95.6988 210.501 91.8712 210.501 87.1631V79.4551C210.501 74.7471 206.841 70.9194 202.34 70.9194Z" fill="#991F6F"/>
<path d="M36.8872 111.503L32.7388 109.447C34.4403 111.931 35.9064 115.81 36.6913 118.896C38.0203 116.021 40.1627 112.503 42.2833 110.402L37.8989 111.582C40.6006 97.7326 50.7622 87.7904 62.3987 87.7904V86.736C50.2441 86.736 39.6457 97.0946 36.8872 111.503Z" fill="#3F3D56"/>
<path d="M55.9808 132.604H29.7693C28.6576 132.604 27.7531 131.658 27.7531 130.495C27.7531 129.332 28.6576 128.386 29.7693 128.386H55.9808C57.0925 128.386 57.9971 129.332 57.9971 130.495C57.9971 131.658 57.0925 132.604 55.9808 132.604Z" fill="#E6E6E6"/>
<path d="M230.348 125.736L230.083 147.267L224.961 166.46L220.867 164.863L222.684 147.27L222.446 123.462L230.348 125.736Z" fill="#FFB6B6"/>
<path d="M224.944 169.555C225.424 166.795 224.543 164.316 222.977 164.018C221.41 163.72 219.75 165.715 219.27 168.475C218.789 171.235 219.67 173.714 221.237 174.012C222.803 174.311 224.463 172.315 224.944 169.555Z" fill="#FFB6B6"/>
<path d="M224.132 100.099C224.132 100.099 232.906 100.225 232.899 105.1C232.895 107.853 232.33 132.844 230.757 148.026C229.544 159.734 227.228 162.788 227.228 162.788L221.684 149.608L224.132 100.099Z" fill="#E6E6E6"/>
<path d="M223.906 144.088H194.274C196.757 138.291 198.284 132.771 195.897 128.379L223.906 126.681C222.507 132.609 222.336 138.427 223.906 144.088Z" fill="#FFB6B6"/>
<path d="M220.253 92.7148L208.481 91.8656L203.61 98.2342L201.141 98.7039C197.439 99.4078 194.803 102.863 194.968 106.794L195.929 129.63L224.066 131.776L230.807 102.039L222.689 98.6588L220.253 92.7148Z" fill="#E6E6E6"/>
<path d="M148.463 99.6033C149.298 100.389 149.894 101.307 150.209 102.198L158.618 109.158L155.334 113.246L147.158 105.745C146.278 105.511 145.343 104.988 144.507 104.202C142.599 102.407 141.938 99.922 143.03 98.6521C144.123 97.3821 146.555 97.808 148.463 99.6033Z" fill="#FFB6B6"/>
<path d="M207.911 105.463L175.693 128.218L152.598 111.408L156.065 104.839L174.242 115.888L191.005 102.425C196.974 96.561 204.455 97.6977 207.911 105.463Z" fill="#E6E6E6"/>
<path d="M213.669 89.9586C218.492 89.9586 222.402 85.8689 222.402 80.824C222.402 75.7792 218.492 71.6895 213.669 71.6895C208.846 71.6895 204.935 75.7792 204.935 80.824C204.935 85.8689 208.846 89.9586 213.669 89.9586Z" fill="#FFB6B6"/>
<path d="M225.54 78.5798V80.3513L215.69 77.4516L208.306 79.0701C208.22 77.8944 207.887 76.7398 207.333 75.717C207.719 77.3575 207.762 78.6266 207.353 79.281L206.36 79.4971C206.199 79.0385 205.886 78.6378 205.478 78.3953C205.438 78.3689 205.387 78.3478 205.342 78.3636C205.271 78.39 205.266 78.4849 205.266 78.5587C205.276 78.9488 205.286 79.339 205.301 79.7291L202.448 80.3513V78.5798C199.711 72.1383 206.925 66.5643 213.997 66.5065C217.187 66.4804 220.071 67.8562 222.162 70.0388C224.249 72.2268 225.54 75.2425 225.54 78.5798Z" fill="#2F2E41"/>
<path d="M231.081 99.3514L230.337 99.287C230.39 99.0326 230.443 98.7814 230.491 98.527C230.903 96.392 229.996 93.6742 229.929 91.6229C229.579 93.7901 230.178 96.4564 229.558 98.5142C229.489 98.7428 226.798 100.218 226.724 100.444C223.745 99.3043 220.644 95.6639 217.131 97.7902C215.054 99.0477 212.683 98.4965 210.325 97.9207C209.741 97.7782 209.66 94.7627 209.082 94.6442C208.047 94.4321 206.528 97.1732 205.553 97.2803L209.586 80.9365C209.586 72.0455 208.799 62.7172 219.567 65.861C222.275 66.6517 224.955 67.2715 226.954 69.6094C228.953 71.9505 230.376 75.2222 230.88 78.9481C231.184 81.1958 233.082 88.8277 231.081 99.3514Z" fill="#2F2E41"/>
<path d="M224.127 263.705L219.32 263.824L216.641 241.235L223.735 241.06L224.127 263.705Z" fill="#FFB7B7"/>
<path d="M207.635 274.195C207.635 275.044 208.211 275.733 208.922 275.733H218.463C218.463 275.733 219.402 271.785 223.231 270.086L223.495 275.733H228.417L227.821 266.653C227.821 266.653 229.137 261.795 226.403 259.312C223.668 256.829 225.883 257.175 225.883 257.175L224.808 251.555L217.37 252.47L217.315 261.291L213.705 270.048L208.411 272.783C207.94 273.027 207.635 273.581 207.635 274.195Z" fill="#2F2E41"/>
<path d="M209.502 260.024L204.881 261.415L196.809 240.277L203.628 238.224L209.502 260.024Z" fill="#FFB7B7"/>
<path d="M196.095 274.548C196.301 275.369 197.025 275.882 197.713 275.694L206.942 273.161C206.942 273.161 206.892 269.093 210.183 266.434L211.809 271.826L216.57 270.519L213.79 261.895C213.79 261.895 213.885 256.847 210.638 255.171C207.39 253.495 209.617 253.241 209.617 253.241L207.213 248.091L200.24 250.95L202.327 259.497L200.96 268.925L196.503 272.976C196.106 273.337 195.946 273.954 196.095 274.548Z" fill="#2F2E41"/>
<path d="M221.18 142.754L224.204 143.808C228.933 152.943 230.937 165.073 230.672 179.701L225.299 245.398H216.51L210.078 172.209L198.737 199.679L207.035 245.398L198.737 246.283L182.023 198.743L193.663 143.489L221.18 142.754Z" fill="#2F2E41"/>
</g>
<defs>
<clipPath id="clip0_15_8">
<rect width="275" height="276" fill="white"/>
</clipPath>
</defs>
</svg>
